<?xml version="1.0" encoding="utf-8"?>
<!-- Generator: Adobe Illustrator 22.0.1, SVG Export Plug-In . SVG Version: 6.00 Build 0)  -->
<svg version="1.1" xmlns="http://www.w3.org/2000/svg" xmlns:xlink="http://www.w3.org/1999/xlink" x="0px" y="0px"
	 viewBox="0 0 595.3 841.9" style="enable-background:new 0 0 595.3 841.9;" xml:space="preserve">
<style type="text/css">
	.st0{display:none;}
	.st1{display:inline;}
	.st2{display:inline;fill:#FFFFFF;}
</style>
<g id="Lager_1">
</g>
<g id="Lager_2">
	<path d="M120.2,244.3c-1.4-0.1-2.1-0.2-3.1-0.2c1.1-0.2,2.3-1.2,4.6-4.5c2.6-3.8,3.6-8.8,0.5-12c-2.5-2.6-6.4-3.6-9.8-3.5
		c-2.7,0-5.9,0.4-8.5,1.2c-2.4,0.8-4.9,1.3-6.5,3.3c-0.8,1-0.8,2.4-0.2,3.3c1.1,1.7,1.5,2.7,2.4,3.9c2.2,3.3,2.9,7.3,3.1,11.2
		c0.2,3.8,0,7.6-0.5,11.3c-0.3,2.1-0.9,4.2-1.2,6.3c-0.3,1.5-0.9,4.1,0,5.5c1.1,1.7,3.7,1.6,5.4,1.6c8.3,0.2,18.4-1.6,22.7-9.7
		c0.2-0.3,0.3-0.6,0.4-0.9c0.8-1.7,1.1-3.6,1-5.5C130.3,249.5,126.1,244.9,120.2,244.3z M104.9,231.6c0.7-1.2,5-1.5,8.3-0.8
		c2.9,0.7,3.8,2.5,4,4c0.3,2.8-7.1,6-9.6,4c-0.3-0.2,0.1-0.2-1-3.9C105.5,231.5,104.8,231.8,104.9,231.6z M121.8,260.3
		c-1.4,3.5-12.5,5.4-14.4,2.9c-0.3-0.5,0.3-1.6,1.1-5.6c0.6-3.6-0.2-6.3,0.2-6.7c1.2-1.2,7.3-1.4,10.1,0.6
		C121.8,253.6,122.9,257.5,121.8,260.3z"/>
	<path d="M148.6,263.8c-1.2,2.8-5.3,2.3-6.7,1.8c-2.8-0.8-4.7-5-3.5-6.5c1-1.2,12.4,0.2,14-1.1c2-1.6-3-9.9-8.5-9.9
		c-4.8,0-7.8,3.5-9.4,7.2c-1.8,4-0.7,9.9,3.3,12.9c2.7,2.1,8,2.2,11,1.1c3.5-1.3,4.4-4.2,3.9-6C152.5,262.5,149.3,262.3,148.6,263.8
		z M143.6,252.8c1.8-0.1,2.8,1.4,2.4,2.1c-0.2,0.3-0.1,0.5-2.2,0.4c-2,0-3.2,0-3.3-0.3C140.1,254.4,142,252.9,143.6,252.8z"/>
	<path d="M177.8,267.6c-0.6-1.7-0.8-4.1-0.4-6.9c0.6-3.9,1.2-7.4-1.5-9.3c-1.7-1.2-4.4-1.9-5.3-1.9c-5.1-0.3-7.6,1.5-10.3,3.8
		c-4.1,3.5-6.8,11-3.8,14c3,3.2,8.4,2.2,11.9-0.2c3.3-2.2,3.6-4.9,3.8-5.4c0.4-0.7-1.3,4.2-0.1,7c0.8,2.1,4.3,3,6.1,0.1
		C178.5,268.4,178.1,268.2,177.8,267.6z M167,260.9c-1.9,1.7-4.4,3.1-5.5,2.1c-0.9-0.9-0.4-2.8,0.4-4.1c1.6-2.3,4.2-2.8,4.7-2.8
		c0.9-0.1,2.1,0.2,2.6,0.9C170,258,168.6,259.4,167,260.9z"/>
	<path d="M181.1,254.7c-0.1,3.2,0.2,10.4,3.8,13c3,2.2,7.3,2.3,10.1,0.4c1.4-0.9,2.1-2.2,2.2-4.1c0-0.2,0-0.2,0-0.2c0,1.3,0-0.5,0,0
		c-0.1,1.9-0.4,3.1,0.2,4.9c0.4,1.1,1.8,1.7,3.2,1.6c1.1-0.1,2.9-1.3,2.5-1.6c-0.4-0.3-1-1.2-1.3-3.5c-0.3-2.5-0.4-5-0.6-7.2
		c-0.3-3.5,0-8.3-1-9.2c-1.2-1.1-3.1-1.1-4,0.1c-0.8,1-0.7,4.1-0.8,5.8c-0.1,2.9-0.5,5.4-2.1,7c-1.5,1.5-5.5,0.9-6.4-0.6
		c-1.7-3-0.5-10.9-1.5-12c-1.3-1.4-2.7-1.4-4,0.1C180.6,250.1,181.2,253,181.1,254.7z"/>
	<path d="M211.8,239.6c0,0.6-0.1,5.3-0.4,8.3c-0.1,1.1-2.9,0.7-5.9,0.5c-2.3-0.1-2.7,2.7-1.7,3.2c1.2,0.6,5.1-0.1,7,1.1
		c0.7,0.4,0.2,2.8,0.2,3.8c0,2.4-0.3,4.8-0.3,7.2c0,2.1,0.2,3.9,1.5,5.6c1.1,1.4,2.8,2.3,4.6,2.6c1.7,0.3,3.5,0.6,5.2-0.6
		c1.8-1.2,2.5-3.6,2.4-5.2c-0.1-1.7-3.7-2.4-4.5-0.7c-0.3,0.5-0.5,2.2-2.4,2c-2.5-0.3-2-5.2-2-7.5c0-2.2,0.1-7.2,0.4-7.4
		c2.2-1.3,4.7-0.3,7.4-0.7c1.1-0.2,1.7-3-0.6-3.1c-2.5-0.1-5.8,0.1-5.8-1.7c0.1-3.7,0.3-4.3,0.2-7.5c0-1.5,0-10.1-0.4-11.6
		c-0.6-2-4.6-1.7-5,0c-0.3,1,0.3,8,0.3,9.8C211.8,238.2,211.8,239.4,211.8,239.6z"/>
	<path d="M230.5,258c0.4,2.5,0.3,2.5-0.1,4.5c-0.4,2-1.1,4-1.4,6c-0.1,0.4-0.1,1.2,0.1,1.7c0.9,1.9,2.7,2.1,3.7,0.3
		c0.3-0.5,1.3-2.6,1.5-3.8c0.4-2.6,0.6-4.3,0.7-6.6c0.1-2.2,0-4.8-1-6.8c-0.6-1.1-2.1-2.7-3.6-0.5C229.4,254.5,230.2,256,230.5,258z
		"/>
	<path d="M255.3,236.2c0.6,1.2,3.7,2,4.1-1c0.5-3.2,1.9-7.6-0.8-10.2c-3.2-3.1-9.6-2.3-12.8,0.7c-5.2,4.8,0.6,16.7-2.3,19.1
		c-0.8,0.7-1.4,0-4.5,0.7c-1.3,0.3-2.2,3.6-0.4,4c2.2,0.5,6-0.9,6.1,0c1,5.6-0.9,18.5-0.2,20.1c1.5,3.7,4.3,2.7,6.1,0.3
		c2-2.6-1-15.5,0-19.7c0.3-1.3,4.2,0.3,7.9-0.3c1.7-0.3,1-3.1-1.5-4c-2.9-1-6.4-0.1-6.8-1c-0.2-0.4-0.8-0.8-1.1-8.3
		c-0.2-4-0.1-5.2,0.8-5.9c0.9-0.7,2.6-0.8,3.5,0C255.2,232,254.2,233.7,255.3,236.2z"/>
	<path d="M288.6,251.5c0,6.6,0.1,8.2,0.3,11.7c0.1,2.3,0.2,3.6,0.9,6c0.6,2,2.1,2.9,3-0.8c0.4-1.7,1-6.3,0.8-11.3
		c-0.1-2.2,0-6.8,0-13.8c0-8.2,0.4-15.1-0.6-17.4c-1.4-3.7-2.5-3.2-3.5,0.4C289,228,288.8,235.1,288.6,251.5z"/>
	<path d="M261.5,254.7c-0.1,3.2,0.2,10.4,3.8,13c3,2.2,7.3,2.3,10.1,0.4c1.4-0.9,2.2-2.4,2.3-4.3c0.1-2,0-2.1,0-2.1
		c0,1.3,0,0-0.1,2.1c-0.1,1.9-0.4,3.1,0.2,4.9c1,3.2,6.5-0.1,5.6,0c-0.5,0-1-1.2-1.3-3.5c-0.3-2.5-0.4-5-0.6-7.2
		c-0.3-3.5-0.4-8-1-9.2c-1-2.3-2.6-2.6-4,0.1c-0.6,1.1-0.7,4.1-0.8,5.8c-0.1,2.9-0.5,5.4-2.1,7c-1.5,1.5-5.5,0.9-6.4-0.6
		c-1.7-3-1.3-11.4-1.5-12c-1.2-2.9-3.3-2.2-4,0.1C261.4,250.4,261.5,253,261.5,254.7z"/>
	<path d="M398.9,239.2c0,0.6-0.1,5.3-0.4,8.3c-0.1,1.1-2.9,0.7-5.9,0.5c-2.3-0.1-2.7,2.7-1.7,3.2c1.2,0.6,4.9-0.7,6.6,0.6
		c0.9,0.7,0.6,3.3,0.6,4.3c0,2.4-0.3,4.8-0.3,7.2c0,2.1,0.2,3.9,1.5,5.6c1.1,1.4,2.8,2.3,4.6,2.6c1.7,0.3,3.5,0.6,5.2-0.6
		c1.8-1.2,2.5-3.6,2.4-5.2c-0.1-1.7-3.7-2.4-4.5-0.7c-0.3,0.5-0.5,2.2-2.4,2c-2.5-0.3-2-5.2-2-7.5c0-2.2,0.1-7.2,0.4-7.4
		c2.2-1.3,4.7-0.3,7.4-0.7c1.1-0.2,1.7-3-0.6-3.1c-2.5-0.1-5.8,0.7-5.7-1.1c0.1-3.7-0.1-5.2,0.1-8.2c0.1-1.7-0.1-9.7-0.5-11.1
		c-0.6-2-4.4-2.1-4.8-0.4c-0.3,1,0.3,8,0.3,9.8C398.9,237.9,398.9,239,398.9,239.2z"/>
	<path d="M444.6,257.9c0.4,2.5,0.3,2.5-0.1,4.5c-0.4,2-1.1,4-1.4,6c-0.1,0.4-0.1,1.2,0.1,1.7c0.9,1.9,2.7,2.1,3.7,0.3
		c0.3-0.5,1.3-2.6,1.5-3.8c0.4-2.6,0.6-4.3,0.7-6.6c0.1-2.2,0-4.8-1-6.8c-0.6-1.1-2.1-2.7-3.6-0.5
		C443.5,254.4,444.3,255.9,444.6,257.9z"/>
	<path d="M455.4,253.6c0,6.6,0.1,8.2,0.3,11.7c0.1,2.3,0.2,3.6,1,6c0.6,2,2.4,2.9,3.3-0.8c0.4-1.7,1.1-6.3,0.9-11.3
		c-0.1-2.2,0-6.8,0-13.8c0-8.2,0.4-15.1-0.6-17.4c-1.6-3.7-2.7-3.2-3.8,0.4C455.9,230.1,455.6,237.2,455.4,253.6z"/>
</g>
<g id="Lager_5" class="st0">
	<path class="st1" d="M229.1,246.5c-0.4,1.1,0,2.6,1.1,3.3c1.4,0.9,3.3,0.2,4.1-1.3c0.6-1.2,0.3-2.8-0.8-3.6
		C232,243.9,229.7,244.8,229.1,246.5z"/>
	<path class="st1" d="M443.2,246.1c-0.4,1.1,0,2.6,1.1,3.3c1.4,0.9,3.3,0.2,4.1-1.3c0.6-1.2,0.3-2.8-0.8-3.6
		C446.2,243.6,443.8,244.4,443.2,246.1z"/>
</g>
<g id="Lager_3">
	<path d="M390.4,260c2-1.6-2.8-9.9-8.2-9.9c-4.8,0-8.1,3.7-9.7,7.4c-1.8,4-0.5,9.7,3.4,12.7c2.7,2.1,7.7,2.1,10.7,1
		c3.5-1.3,3.9-4.3,3.3-6c-0.3-0.8-2.6-1.9-3.5,0.2c-1.2,2.5-4.8,2.3-6.7,1.6c-3.5-1.4-4.3-4.4-3.1-5.9
		C377.6,260,388.8,261.3,390.4,260z M381.9,254.7c1.9-0.1,2.9,1.5,2.5,2.2c-0.2,0.3-0.1,0.5-2.3,0.5c-2.1,0-3.2-0.1-3.3-0.4
		C378.4,256.3,380.2,254.8,381.9,254.7z"/>
	<path d="M438,269.8c-0.6-0.1-0.7-0.6-0.9-1.1c-0.6-1.7-0.2-4.1,0.2-6.9c0.6-3.8,1.2-7.3-1.5-9.3c-1.7-1.2-4.3-1.8-5.3-1.9
		c-5.1-0.3-7.5,1.5-10.2,3.7c-4,3.5-6.7,10.9-3.8,13.9c3,3.1,8.4,2.2,11.8-0.2c3.3-2.2,3.5-4.9,3.8-5.3c0.4-0.7-1,4.1-0.1,7
		C433.2,273.8,440.2,270,438,269.8z M426.9,261.9c-1.8,1.6-4.2,3-5.2,2c-0.8-0.8-0.4-2.7,0.4-3.8c1.5-2.2,4-2.6,4.5-2.7
		c0.9-0.1,1.9,0.2,2.4,0.9C429.7,259.2,428.4,260.5,426.9,261.9z"/>
	<path d="M339.1,229.7c-1.4,2.3,0.9,7.8,1.1,19.4c0.2,12.6-3.1,18.2-1.6,21.6c2.6,5.8,32.5-7.5,32.6-20.9
		C371.3,235.4,341.2,226.3,339.1,229.7z M351.2,260.7c-0.9,0.4-3.1,1.6-4.5,0.5c-0.9-0.8,0.5-1.8,0.6-10.6
		c0.1-7.4-1.2-10.2-0.4-10.7c1.1-0.7,2.8,0.1,3.7,0.4c0.5,0.1,10.7,3.4,10.5,10.5C360.9,256.4,354.9,259,351.2,260.7z"/>
	<path d="M479.5,254.7c1.5,1.1,3.1,1.4,2.7-0.9c-0.1-0.6-0.6-2.1-1.5-3c-0.9-1-2.1-1.9-3.3-2.3c-2.7-0.9-5.9-0.4-7.7,1.7
		c-1.2,1.5-1.7,3.4-1,5c0.5,1.2,1.5,2.3,2.5,3.4c2,2.3,3.2,3.9,3.7,4.7c0.5,1,0.9,1.5,0.1,2.6c-0.4,0.5-1.9,0.6-2.9-0.2
		c-0.9-0.7-1-1.6-1.6-2.7c-0.9-1.4-3.3-2.3-4.1,0.3c-0.4,1.3-0.5,5,2.6,7.4c2,1.6,3.9,1.6,6,1.3c4.1-0.6,6.7-4.8,6.1-8.3
		c-0.3-2-1.5-4.3-3.5-6.4c-1.3-1.3-2.7-1.9-3.7-2.8c-0.9-0.9-0.3-2,0.8-2.3C476.6,251.9,478,253.6,479.5,254.7z"/>
	<path d="M25.7,262.4c-0.7,7.7,20.2,20.8,39,18.1c8.8-1.3,18.8-6.2,18.4-9.8c-0.3-3.3-9.4-6.3-11.9-3.8c-3.7,3.8,5.6,19.7,7,21.7
		c22.9,33.8,100.1,22.1,109.8,20.6c56.9-9.3,92.2-36.4,109.6-20.5c3.6,3.2,9,9.4,7.2,13.2c-1.4,3-6.5,3.1-9.1,3
		c-3.1-0.1-6.4-1.3-6.6-4c-0.1-0.7,0.2-1.4,0.5-2.1c0.4-0.8,0.9-1.5,1.6-2.1c0.6-0.5,1.3-0.9,2.1-1.1c0.5-0.2,1-0.3,1.5-0.5
		c0.6-0.2,1.1-0.4,1.7-0.6c0.6-0.2,1.2-0.4,1.9-0.6c0.7-0.2,1.4-0.5,2.1-0.7c0.7-0.2,1.5-0.5,2.2-0.7c0.8-0.2,1.6-0.5,2.4-0.7
		c0.8-0.3,1.7-0.5,2.5-0.7c0.9-0.3,1.8-0.5,2.7-0.7c0.9-0.2,1.8-0.5,2.8-0.7c1-0.2,1.9-0.5,2.9-0.7c1-0.2,2-0.4,3-0.6
		c1-0.2,2-0.4,3-0.6c1-0.2,2.1-0.4,3.1-0.5c1-0.2,2.1-0.3,3.2-0.4c0.1,0,0.3,0,0.4,0c25.8-3.1,42.7,2.7,104.4,15.1
		c36,7.2,48.5,9.6,60.9,5.9c16-4.8,33.9-22.9,34.2-37.3c0.1-4.6-1.9-10.9-4.7-11.3c-3.5-0.5-9.1,8.2-7.2,11.5
		c0.8,1.3,2.8,1.8,4.7,1.9c3.1,0.2,5.2,0,6.3-0.2c12.2-2.4,11.3-2.2,12.5-2.5c3.6-0.9,9.9-3.1,17-7.9c2.5-1.7,4.8-3.6,6.9-5.7
		c2.7-2.6,5.5-5.4,6.7-9c0.3-0.9,0.1-1.8-0.9-2.1c-0.4-0.1-0.9-0.1-1.3-0.1c-5.6,0.6-7.8,6.9-11.5,10.4c-5.2,4.9-11.8,8.6-18.4,11.3
		c0,0-0.1,0-0.1,0.1c-0.6,0.3-5.4,2.7-11,3.6c-1.6,0.2-1.4,0.4-4.1,0.3c-1.3-0.1-3.2-0.2-4.1-1.1c-1.3-1.4,0.6-4.5,0.8-4.8
		c0.6-0.8,1.5-1.4,2.9-1.3c2,0.1,2.7,2.4,3.1,4.6c0.8,4.7-1.4,8.7-2.2,9.9c-3.9,6.1-8.2,12-13.6,16.7c-5.9,5.1-13.1,7.5-20.7,8.8
		c-7.6,1.3-13.5,1.2-15.3,1.1c-3.3-0.1-8-1-17.3-2.6c-3.6-0.6-8.4-1.5-15.5-2.9c-8.7-1.7-9.3-2-17.1-3.5c-5.1-1-4.9-0.9-15.4-2.9
		c-12-2.2-13-2.5-18.9-3.6c-1.9-0.3-11.1-2-19.1-3.1c-19.9-2.8-29.8-4.2-40.5-2.7c-12.4,1.8-9.7,1.6-27,6.5
		c-9.1,2.5-16.7,3.6-18.6,8.3c-1.1,2.8,0.2,5.9,1.5,7.6c4.7,6,17.8,4.7,21.1-1.6c1.8-3.4,0.3-7.4-0.4-9.3
		c-2.7-7.5-9.8-10.7-11.3-11.4c-7.7-3.6-15.4-2-23.8,0.1c-19.3,4.7-33.9,9.9-36.2,10.7c-21.5,7.6-39.2,10.4-47.9,11.7
		c-20.4,3.1-35.1,2.7-49.3,2.2c-14.5-0.4-23.5-1.6-33.1-5c-12.5-4.4-18.4-9.6-20.4-11.4c-7.9-7.4-14.6-19.1-12-22
		c1.5-1.6,6-0.7,6.3,0.8c0.5,2-6.7,6.4-13.7,7.6c-8.8,1.5-16.2-2.2-18.6-3.5c-11.4-5.9-16.1-16.5-19.5-14.9
		C25.9,260.2,25.7,262.2,25.7,262.4z"/>
</g>
<g id="Lager_4">
	<polygon points="234.1,251 231.5,249.7 229,251.1 229.4,248.2 227.3,246.2 230.2,245.7 231.4,243.1 232.7,245.7 235.6,246 
		233.6,248.1 	"/>
	<polygon points="448.7,250.7 446,249.4 443.4,250.8 443.9,247.9 441.7,245.8 444.6,245.3 445.9,242.7 447.3,245.3 450.2,245.7 
		448.1,247.8 	"/>
</g>
<g id="orginalare" class="st0">
	<path class="st1" d="M90.3,53.4c1.1,1.7,1.5,2.7,2.4,3.9c2.2,3.2,2.9,7.3,3.1,11.2c0.2,3.8,0,7.6-0.6,11.3C94.9,82,94.4,84,94,86.1
		c-0.3,1.5-0.9,4.1,0,5.5c1.1,1.7,3.7,1.6,5.4,1.6c8.3,0.2,18.4-1.6,22.7-9.7c0.2-0.3,0.3-0.6,0.4-0.9c0.8-1.7,1.1-3.6,1-5.5
		c-0.2-6-4.3-10.6-10.3-11.2c-1.9-0.2-2.4-0.2-4.3-0.1c-0.2,0-0.5,0-0.4,0c1.8,0.1,2.9,0.2,6.2-4.6c2.6-3.8,3.6-8.8,0.5-12
		c-2.5-2.6-6.4-3.6-9.8-3.6c-2.7,0-5.9,0.4-8.5,1.2c-2.4,0.8-4.9,1.3-6.5,3.3C89.7,51,89.7,52.5,90.3,53.4z"/>
	<path class="st1" d="M131.6,80.7c1-1.2,12.4,0.2,14-1.1c2-1.6-3-9.9-8.5-9.9c-4.8,0-7.8,3.5-9.4,7.2c-1.8,4-0.7,9.9,3.3,12.9
		c2.7,2.1,8,2.2,11,1.1c3.5-1.3,4.4-4.2,3.9-6c-0.2-0.8-3.4-1-4,0.4c-1.2,2.8-5.3,2.3-6.7,1.8C132.3,86.4,130.4,82.1,131.6,80.7z"/>
	<path class="st1" d="M163.8,71.1c-5.2-0.3-7.6,1.5-10.3,3.7c-4.1,3.5-6.8,11-3.8,14c3,3.2,8.4,2.2,11.9-0.2
		c3.3-2.2,3.6-4.9,3.8-5.4c0.4-0.7-1.3,4.2-0.1,7c0.8,2.1,4.3,3.1,6.1,0.1c0.3-0.5-0.1-0.7-0.3-1.3c-0.6-1.7-0.8-4.1-0.4-6.9
		c0.6-3.9,1.2-7.4-1.6-9.3C167.3,71.8,164.7,71.2,163.8,71.1z"/>
	<path class="st1" d="M174.3,76.3c-0.1,3.2,0.2,10.4,3.8,13c3,2.2,7.3,2.3,10.1,0.4c1.4-0.9,2.1-2.2,2.2-4.1c0-0.2,0-0.2,0-0.2
		c0,1.3,0-0.5,0,0c-0.1,1.9-0.4,3.1,0.2,4.9c0.4,1.1,1.8,1.7,3.2,1.6c1.1-0.1,2.9-1.3,2.5-1.6c-0.4-0.3-1-1.2-1.3-3.5
		c-0.3-2.5-0.4-5-0.6-7.2c-0.3-3.5,0-8.3-1-9.2c-1.2-1.1-3.1-1.1-4,0.1c-0.8,1-0.7,4.1-0.8,5.8c-0.1,2.9-0.5,5.4-2.1,7
		c-1.5,1.5-5.5,0.9-6.4-0.6c-1.7-3-0.5-10.9-1.5-12c-1.3-1.4-2.7-1.4-4,0.1C173.8,71.7,174.3,74.6,174.3,76.3z"/>
	<path class="st1" d="M204.9,61.2c0,0.6-0.1,5.3-0.4,8.3c-0.1,1.1-2.9,0.7-5.9,0.5c-2.3-0.1-2.7,2.7-1.7,3.2c1.2,0.6,5.1-0.1,7,1.1
		c0.7,0.4,0.2,2.8,0.2,3.8c0,2.4-0.3,4.8-0.3,7.2c0,2.1,0.2,3.9,1.5,5.6c1.1,1.4,2.8,2.3,4.6,2.6c1.7,0.3,3.5,0.6,5.2-0.6
		c1.8-1.2,2.5-3.6,2.4-5.2c-0.1-1.7-3.7-2.4-4.5-0.7c-0.3,0.5-0.5,2.2-2.4,2c-2.5-0.3-2-5.2-2-7.5c0-2.2,0.1-7.2,0.4-7.4
		c2.2-1.3,4.7-0.3,7.4-0.7c1.1-0.2,1.7-3-0.6-3.1c-2.5-0.1-5.8,0.1-5.8-1.7c0.1-3.7,0.3-4.3,0.2-7.5c0-1.5,0-10.1-0.4-11.6
		c-0.6-2-4.6-1.7-5,0c-0.3,1,0.3,8,0.3,9.8C204.9,59.8,205,61,204.9,61.2z"/>
	<path class="st1" d="M223.7,79.6c0.4,2.5,0.3,2.5-0.1,4.5c-0.4,2-1.1,4-1.4,6c-0.1,0.4-0.1,1.2,0.1,1.7c0.9,1.9,2.7,2.1,3.7,0.3
		c0.3-0.5,1.3-2.6,1.5-3.8c0.4-2.6,0.6-4.3,0.7-6.6c0.1-2.2,0-4.8-1-6.8c-0.6-1.1-2.1-2.7-3.6-0.5C222.5,76.1,223.3,77.6,223.7,79.6
		z"/>
	<path class="st1" d="M248.5,57.8c0.6,1.2,3.7,2,4.1-1c0.5-3.2,1.9-7.6-0.8-10.2c-3.2-3.1-9.6-2.3-12.8,0.7
		c-5.2,4.8,0.6,16.7-2.3,19.1c-0.8,0.7-1.4,0-4.5,0.7c-1.3,0.3-2.2,3.6-0.4,4c2.2,0.5,6-0.9,6.1,0c1,5.6-0.9,18.5-0.2,20.1
		c1.5,3.7,4.3,2.7,6.1,0.3c2-2.6-1-15.5,0-19.7c0.3-1.3,4.2,0.3,7.9-0.3c1.7-0.3,1-3.1-1.5-4c-2.9-1-6.4-0.1-6.8-1
		c-0.2-0.4-0.8-0.8-1.1-8.3c-0.2-4-0.1-5.2,0.8-5.9c0.9-0.7,2.6-0.8,3.5,0C248.4,53.6,247.3,55.3,248.5,57.8z"/>
	<path class="st1" d="M281.8,73.1c0,6.6,0.1,8.2,0.3,11.7c0.1,2.3,0.2,3.6,0.9,6c0.6,2,2.1,2.9,3-0.8c0.4-1.7,1-6.3,0.8-11.3
		c-0.1-2.2,0-6.8,0-13.8c0-8.2,0.4-15.1-0.6-17.4c-1.4-3.7-2.5-3.2-3.5,0.4C282.2,49.6,281.9,56.7,281.8,73.1z"/>
	<path class="st1" d="M254.6,76.3c-0.1,3.2,0.2,10.4,3.8,13c3,2.2,7.3,2.3,10.1,0.4c1.4-0.9,2.2-2.4,2.3-4.3c0.1-2,0-2.1,0-2.1
		c0,1.3,0,0-0.1,2.1c-0.1,1.9-0.4,3.1,0.2,4.9c1,3.2,6.5-0.1,5.6,0c-0.5,0-1-1.2-1.3-3.5c-0.3-2.5-0.4-5-0.6-7.2
		c-0.3-3.5-0.4-8-1-9.2c-1-2.3-2.6-2.6-4,0.1c-0.6,1.1-0.7,4.1-0.8,5.8c-0.1,2.9-0.5,5.4-2.1,7c-1.5,1.5-5.5,0.9-6.4-0.6
		c-1.7-3-1.3-11.4-1.5-12c-1.2-2.9-3.3-2.2-4,0.1C254.5,72,254.6,74.6,254.6,76.3z"/>
	<path class="st2" d="M98.1,53.2c-0.1,0.3,0.6-0.1,1.6,3.3c1.1,3.6,0.8,3.6,1,3.9c2.4,2,9.8-1.2,9.6-4c-0.2-1.5-1-3.3-3.9-4
		C103.1,51.6,98.7,52,98.1,53.2z"/>
	<path class="st2" d="M101.8,72.5c-0.4,0.4,0.5,3.1-0.2,6.7c-0.7,4.1-1.4,5.2-1,5.6c1.8,2.4,12.9,0.6,14.4-2.9c1.1-2.7,0-6.7-3-8.8
		C109.1,71.1,103,71.3,101.8,72.5z"/>
	<path class="st1" d="M392.1,60.8c0,0.6-0.1,5.3-0.4,8.3c-0.1,1.1-2.9,0.7-5.9,0.5c-2.3-0.1-2.7,2.7-1.7,3.2
		c1.2,0.6,4.9-0.7,6.6,0.6c0.9,0.7,0.6,3.3,0.6,4.3c0,2.4-0.3,4.8-0.3,7.2c0,2.1,0.2,3.9,1.5,5.6c1.1,1.4,2.8,2.3,4.6,2.6
		c1.7,0.3,3.5,0.6,5.2-0.6c1.8-1.2,2.5-3.6,2.4-5.2c-0.1-1.7-3.7-2.4-4.5-0.7c-0.3,0.5-0.5,2.2-2.4,2c-2.5-0.3-2-5.2-2-7.5
		c0-2.2,0.1-7.2,0.4-7.4c2.2-1.3,4.7-0.3,7.4-0.7c1.1-0.2,1.7-3-0.6-3.1c-2.5-0.1-5.8,0.7-5.7-1.1c0.1-3.7-0.1-5.2,0.1-8.2
		c0.1-1.7-0.1-9.7-0.5-11.1c-0.6-2-4.4-2.1-4.8-0.4c-0.3,1,0.3,8,0.3,9.8C392,59.4,392.1,60.6,392.1,60.8z"/>
	<path class="st1" d="M437.8,79.5c0.4,2.5,0.3,2.5-0.1,4.5c-0.4,2-1.1,4-1.4,6c-0.1,0.4-0.1,1.2,0.1,1.7c0.9,1.9,2.7,2.1,3.7,0.3
		c0.3-0.5,1.3-2.6,1.5-3.8c0.4-2.6,0.6-4.3,0.7-6.6c0.1-2.2,0-4.8-1-6.8c-0.6-1.1-2.1-2.7-3.6-0.5C436.6,76,437.4,77.5,437.8,79.5z"
		/>
	<path class="st1" d="M448.6,75.2c0,6.6,0.1,8.2,0.3,11.7c0.1,2.3,0.2,3.6,1,6c0.6,2,2.4,2.9,3.3-0.8c0.4-1.7,1.1-6.3,0.9-11.3
		c-0.1-2.2,0-6.8,0-13.8c0-8.2,0.4-15.1-0.6-17.4c-1.6-3.7-2.7-3.2-3.8,0.4C449,51.7,448.7,58.8,448.6,75.2z"/>
	<path class="st1" d="M369.7,82.7c1-1.2,12.3,0.2,13.9-1.1c2-1.6-2.8-9.9-8.2-9.9c-4.8,0-8.1,3.7-9.7,7.4c-1.8,4-0.5,9.7,3.4,12.7
		c2.6,2.1,7.7,2.1,10.7,1c3.5-1.3,3.9-4.3,3.2-6c-0.3-0.8-2.6-1.9-3.5,0.2c-1.2,2.5-4.8,2.4-6.7,1.6
		C369.3,87.3,368.5,84.2,369.7,82.7z"/>
	<path class="st1" d="M423.7,72.1c-5.1-0.3-7.5,1.5-10.2,3.7c-4,3.5-6.7,10.9-3.8,13.9c3,3.2,8.4,2.2,11.8-0.2
		c3.3-2.2,3.5-4.9,3.8-5.3c0.4-0.7-1,4.1-0.1,7c1.2,4.2,8.2,0.3,6,0.1c-0.6-0.1-0.7-0.6-0.9-1.2c-0.6-1.7-0.2-4.1,0.2-6.9
		c0.6-3.8,1.2-7.3-1.5-9.3C427.3,72.8,424.6,72.2,423.7,72.1z"/>
	<path class="st1" d="M332.3,51.3c-1.4,2.3,0.9,7.8,1.1,19.4c0.2,12.6-3,18.2-1.6,21.6c2.6,5.8,32.5-7.5,32.6-20.9
		C364.4,57,334.3,47.9,332.3,51.3z"/>
	<path class="st1" d="M472.6,76.3c1.5,1.1,3.1,1.4,2.7-0.9c-0.1-0.6-0.6-2.1-1.5-3c-0.9-1-2.1-1.9-3.3-2.3c-2.7-0.9-5.9-0.4-7.7,1.7
		c-1.2,1.5-1.7,3.4-1,5c0.5,1.2,1.5,2.3,2.5,3.4c2,2.3,3.2,3.9,3.7,4.7c0.5,1,0.9,1.5,0.1,2.6c-0.4,0.5-1.9,0.6-2.9-0.2
		c-0.9-0.7-1-1.6-1.6-2.7c-0.9-1.4-3.3-2.3-4.1,0.3c-0.4,1.3-0.5,5,2.6,7.4c2,1.6,3.9,1.6,6,1.3c4.1-0.6,6.7-4.8,6.1-8.3
		c-0.3-2-1.5-4.3-3.5-6.4c-1.3-1.3-2.7-1.9-3.7-2.8c-0.9-0.9-0.3-2,0.8-2.3C469.7,73.4,471.1,75.2,472.6,76.3z"/>
	<path class="st2" d="M340.1,61.4c-0.8,0.5,0.5,3.4,0.4,10.7c-0.1,8.9-1.5,9.9-0.6,10.6c1.3,1.1,3.6-0.1,4.5-0.5
		c3.7-1.7,9.7-4.3,9.9-10c0.2-7.1-10-10.3-10.4-10.5C342.9,61.5,341.2,60.7,340.1,61.4z"/>
	<path class="st2" d="M133.7,76.6c0.2,0.3,1.3,0.3,3.3,0.3c2.1,0,2-0.2,2.2-0.4c0.4-0.6-0.6-2.2-2.4-2.1
		C135.1,74.5,133.3,76,133.7,76.6z"/>
	<path class="st2" d="M159.8,77.7c-0.5,0.1-3.1,0.5-4.7,2.8c-0.8,1.2-1.3,3.2-0.4,4.1c1,1,3.5-0.4,5.5-2.1c1.6-1.4,3-2.8,2.3-3.9
		C161.9,77.8,160.7,77.5,159.8,77.7z"/>
	<path class="st2" d="M371.9,78.5c0.2,0.3,1.2,0.4,3.3,0.4c2.2,0,2.1-0.2,2.3-0.5c0.4-0.7-0.6-2.3-2.5-2.2
		C373.3,76.4,371.5,77.9,371.9,78.5z"/>
	<path class="st2" d="M419.7,79c-0.5,0.1-3,0.5-4.5,2.7c-0.8,1.2-1.2,3-0.4,3.8c1,1,3.3-0.4,5.2-2c1.5-1.4,2.8-2.7,2.1-3.7
		C421.7,79.1,420.6,78.8,419.7,79z"/>
	<path class="st1" d="M18.8,83.9c-0.7,7.7,20.2,20.8,39,18.1c8.8-1.3,18.8-6.2,18.4-9.8C76,89,66.9,86,64.4,88.5
		c-3.7,3.8,5.6,19.7,7,21.7c22.9,33.8,100.1,22.1,109.8,20.6c56.9-9.3,92.2-36.4,109.6-20.5c3.6,3.2,9,9.4,7.2,13.2
		c-1.4,3-6.5,3.1-9.1,3c-3.1-0.1-6.4-1.3-6.6-4c-0.1-0.7,0.2-1.4,0.5-2.1c0.4-0.8,0.9-1.5,1.6-2.1c0.6-0.5,1.3-0.9,2.1-1.1
		c0.5-0.2,1-0.3,1.5-0.5c0.6-0.2,1.1-0.4,1.7-0.6c0.6-0.2,1.2-0.4,1.9-0.6c0.7-0.2,1.4-0.5,2.1-0.7c0.7-0.2,1.5-0.5,2.2-0.7
		c0.8-0.2,1.6-0.5,2.4-0.7c0.8-0.3,1.7-0.5,2.5-0.7c0.9-0.3,1.8-0.5,2.7-0.7c0.9-0.2,1.8-0.5,2.8-0.7c1-0.2,1.9-0.5,2.9-0.7
		c1-0.2,2-0.4,3-0.6c1-0.2,2-0.4,3-0.6c1-0.2,2.1-0.4,3.1-0.5c1-0.2,2.1-0.3,3.2-0.4c0.1,0,0.3,0,0.4,0
		c25.8-3.1,42.7,2.7,104.4,15.1c36,7.2,48.5,9.6,60.9,5.9c16-4.8,33.9-22.9,34.2-37.3c0.1-4.6-1.9-10.9-4.7-11.3
		c-3.5-0.5-9.1,8.2-7.2,11.5c0.8,1.3,2.8,1.8,4.7,1.9c3.1,0.2,5.2,0,6.3-0.2c12.2-2.4,11.3-2.2,12.5-2.5c3.6-0.9,9.9-3.1,17-7.9
		c2.5-1.7,4.8-3.6,6.9-5.7c2.7-2.6,5.5-5.4,6.7-9c0.3-0.9,0.1-1.8-0.9-2.1c-0.4-0.1-0.9-0.1-1.3-0.1c-5.6,0.6-7.8,6.9-11.5,10.4
		c-5.2,4.9-11.8,8.6-18.4,11.3c0,0-0.1,0-0.1,0.1c-0.6,0.3-5.4,2.7-11,3.6c-1.6,0.2-1.4,0.4-4.1,0.3c-1.3-0.1-3.2-0.2-4.1-1.1
		c-1.3-1.4,0.6-4.5,0.8-4.8c0.6-0.8,1.5-1.4,2.9-1.3c2,0.1,2.7,2.4,3.1,4.6c0.8,4.7-1.4,8.7-2.2,9.9c-3.9,6.1-8.2,12-13.6,16.7
		c-5.9,5.1-13.1,7.5-20.7,8.8c-7.6,1.3-13.5,1.2-15.3,1.1c-3.3-0.1-8-1-17.3-2.6c-3.6-0.6-8.4-1.5-15.5-2.9c-8.7-1.7-9.3-2-17.1-3.5
		c-5.1-1-4.9-0.9-15.4-2.9c-12-2.2-13-2.5-18.9-3.6c-1.9-0.3-11.1-2-19.1-3.1c-19.9-2.8-29.8-4.2-40.5-2.7c-12.4,1.8-9.7,1.6-27,6.5
		c-9.1,2.5-16.7,3.6-18.6,8.3c-1.1,2.8,0.2,5.9,1.5,7.6c4.7,6,17.8,4.7,21.1-1.6c1.8-3.4,0.3-7.4-0.4-9.3
		c-2.7-7.5-9.8-10.7-11.3-11.4c-7.7-3.6-15.4-2-23.8,0.1c-19.3,4.7-33.9,9.9-36.2,10.7c-21.5,7.6-39.2,10.4-47.9,11.7
		c-20.4,3.1-35.1,2.7-49.3,2.2c-14.5-0.4-23.5-1.6-33.1-5c-12.5-4.4-18.4-9.6-20.4-11.4c-7.9-7.4-14.6-19.1-12-22
		c1.5-1.6,6-0.7,6.3,0.8c0.5,2-6.7,6.4-13.7,7.6c-8.8,1.5-16.2-2.2-18.6-3.5c-11.4-5.9-16.1-16.5-19.5-14.9
		C19,81.8,18.8,83.8,18.8,83.9z"/>
	<polygon class="st1" points="227.3,72.6 224.7,71.2 222.1,72.7 222.6,69.8 220.4,67.8 223.3,67.3 224.5,64.7 225.9,67.3 
		228.8,67.6 226.7,69.7 	"/>
	<polygon class="st1" points="441.8,72.3 439.2,71 436.6,72.4 437,69.5 434.8,67.4 437.8,66.9 439.1,64.2 440.4,66.9 443.4,67.3 
		441.3,69.4 	"/>
</g>
</svg>
