<?xml version="1.0" encoding="utf-8"?>
<!-- Generator: Adobe Illustrator 15.1.0, SVG Export Plug-In . SVG Version: 6.00 Build 0)  -->
<!DOCTYPE svg PUBLIC "-//W3C//DTD SVG 1.1//EN" "http://www.w3.org/Graphics/SVG/1.1/DTD/svg11.dtd">
<svg version="1.1" id="Lager_1" xmlns="http://www.w3.org/2000/svg" xmlns:xlink="http://www.w3.org/1999/xlink" x="0px" y="0px"
	 width="402px" height="83px" viewBox="196.5 148.5 402 83" enable-background="new 196.5 148.5 402 83" xml:space="preserve">
<g id="Lager_1_1_">
</g>
<g id="Lager_2">
	<path d="M273.536,174.106c-0.998-0.071-1.497-0.142-2.209-0.142c0.784-0.143,1.639-0.855,3.278-3.207
		c1.853-2.709,2.566-6.272,0.356-8.553c-1.782-1.853-4.561-2.565-6.984-2.494c-1.924,0-4.205,0.285-6.058,0.855
		c-1.71,0.57-3.492,0.926-4.632,2.352c-0.57,0.713-0.57,1.71-0.143,2.352c0.784,1.212,1.069,1.925,1.71,2.779
		c1.568,2.353,2.067,5.203,2.209,7.982c0.143,2.708,0,5.416-0.356,8.053c-0.214,1.497-0.642,2.993-0.855,4.49
		c-0.214,1.069-0.641,2.922,0,3.92c0.784,1.211,2.637,1.14,3.849,1.14c5.915,0.143,13.113-1.14,16.178-6.912
		c0.143-0.214,0.214-0.428,0.285-0.642c0.57-1.212,0.784-2.565,0.712-3.92C280.734,177.812,277.741,174.533,273.536,174.106z
		 M262.632,165.055c0.499-0.854,3.563-1.068,5.915-0.57c2.067,0.499,2.708,1.782,2.851,2.852c0.214,1.995-5.06,4.275-6.842,2.851
		c-0.213-0.143,0.071-0.143-0.712-2.779C263.06,164.984,262.561,165.198,262.632,165.055z M274.676,185.509
		c-0.998,2.494-8.908,3.849-10.262,2.066c-0.214-0.356,0.213-1.14,0.784-3.991c0.428-2.565-0.143-4.489,0.143-4.774
		c0.855-0.855,5.203-0.998,7.198,0.428C274.676,180.734,275.46,183.514,274.676,185.509z"/>
	<path d="M293.776,188.003c-0.855,1.995-3.777,1.64-4.775,1.283c-1.996-0.57-3.35-3.563-2.494-4.633
		c0.712-0.855,8.837,0.143,9.978-0.784c1.425-1.14-2.138-7.055-6.058-7.055c-3.421,0-5.559,2.494-6.699,5.131
		c-1.283,2.851-0.499,7.056,2.352,9.193c1.924,1.497,5.701,1.568,7.839,0.784c2.495-0.927,3.136-2.993,2.779-4.276
		C296.556,187.076,294.275,186.934,293.776,188.003z M290.212,180.164c1.283-0.071,1.996,0.997,1.71,1.496
		c-0.143,0.214-0.071,0.356-1.568,0.285c-1.425,0-2.28,0-2.352-0.214C287.718,181.304,289.072,180.236,290.212,180.164z"/>
	<path d="M314.586,190.711c-0.428-1.211-0.57-2.922-0.285-4.917c0.428-2.779,0.855-5.274-1.069-6.628
		c-1.211-0.855-3.136-1.354-3.777-1.354c-3.634-0.214-5.416,1.069-7.34,2.708c-2.922,2.495-4.846,7.84-2.708,9.978
		c2.138,2.281,5.986,1.568,8.48-0.143c2.352-1.567,2.566-3.492,2.708-3.848c0.285-0.499-0.927,2.993-0.071,4.988
		c0.57,1.497,3.064,2.138,4.347,0.071C315.085,191.281,314.8,191.139,314.586,190.711z M306.889,185.937
		c-1.354,1.211-3.136,2.209-3.919,1.496c-0.642-0.641-0.285-1.995,0.285-2.922c1.141-1.639,2.993-1.995,3.35-1.995
		c0.642-0.071,1.497,0.143,1.853,0.642C309.027,183.869,308.029,184.867,306.889,185.937z"/>
	<path d="M316.938,181.518c-0.071,2.28,0.143,7.412,2.708,9.265c2.138,1.568,5.203,1.64,7.198,0.285
		c0.998-0.642,1.497-1.567,1.568-2.922c0-0.143,0-0.143,0-0.143c0,0.927,0-0.356,0,0c-0.071,1.354-0.285,2.209,0.143,3.492
		c0.285,0.784,1.283,1.212,2.28,1.141c0.784-0.071,2.067-0.927,1.782-1.141s-0.713-0.855-0.926-2.494
		c-0.214-1.782-0.285-3.563-0.428-5.132c-0.214-2.494,0-5.915-0.713-6.557c-0.855-0.783-2.209-0.783-2.851,0.071
		c-0.57,0.713-0.499,2.923-0.57,4.134c-0.071,2.066-0.356,3.849-1.497,4.989c-1.069,1.068-3.919,0.641-4.561-0.428
		c-1.211-2.139-0.356-7.769-1.069-8.553c-0.927-0.997-1.924-0.997-2.851,0.071C316.582,178.24,317.009,180.307,316.938,181.518z"/>
	<path d="M338.817,170.757c0,0.427-0.071,3.776-0.285,5.915c-0.071,0.783-2.066,0.499-4.205,0.356
		c-1.639-0.071-1.924,1.924-1.211,2.28c0.855,0.428,3.634-0.071,4.989,0.784c0.499,0.285,0.143,1.995,0.143,2.708
		c0,1.71-0.214,3.421-0.214,5.131c0,1.497,0.143,2.779,1.069,3.991c0.784,0.998,1.996,1.639,3.278,1.853
		c1.211,0.214,2.494,0.428,3.706-0.428c1.283-0.854,1.782-2.565,1.71-3.705c-0.071-1.212-2.637-1.711-3.207-0.499
		c-0.214,0.356-0.356,1.567-1.71,1.425c-1.782-0.214-1.425-3.706-1.425-5.345c0-1.568,0.071-5.131,0.285-5.273
		c1.568-0.927,3.35-0.214,5.274-0.499c0.784-0.143,1.211-2.139-0.428-2.21c-1.782-0.071-4.133,0.071-4.133-1.211
		c0.071-2.637,0.214-3.064,0.143-5.345c0-1.069,0-7.198-0.285-8.268c-0.428-1.425-3.278-1.212-3.563,0
		c-0.214,0.713,0.214,5.701,0.214,6.984C338.817,169.759,338.817,170.615,338.817,170.757z"/>
	<path d="M352.144,183.869c0.285,1.782,0.214,1.782-0.071,3.207c-0.285,1.426-0.784,2.852-0.998,4.276
		c-0.071,0.285-0.071,0.855,0.071,1.212c0.642,1.354,1.924,1.496,2.637,0.214c0.214-0.356,0.926-1.854,1.069-2.709
		c0.285-1.853,0.428-3.064,0.499-4.703c0.071-1.568,0-3.421-0.713-4.847c-0.427-0.783-1.497-1.924-2.565-0.355
		C351.36,181.375,351.93,182.445,352.144,183.869z"/>
	<path d="M369.818,168.333c0.428,0.855,2.637,1.426,2.922-0.713c0.356-2.28,1.354-5.416-0.57-7.269
		c-2.28-2.21-6.841-1.64-9.122,0.499c-3.706,3.421,0.428,11.901-1.639,13.611c-0.57,0.499-0.998,0-3.207,0.499
		c-0.926,0.214-1.568,2.565-0.285,2.851c1.568,0.356,4.276-0.641,4.348,0c0.712,3.991-0.642,13.185-0.143,14.325
		c1.069,2.637,3.064,1.924,4.347,0.214c1.425-1.854-0.713-11.047,0-14.04c0.214-0.927,2.993,0.214,5.63-0.214
		c1.212-0.214,0.713-2.209-1.069-2.851c-2.067-0.713-4.561-0.071-4.846-0.713c-0.143-0.285-0.57-0.57-0.784-5.915
		c-0.143-2.851-0.071-3.706,0.57-4.205c0.642-0.498,1.853-0.569,2.495,0C369.747,165.34,369.034,166.552,369.818,168.333z"/>
	<path d="M393.55,179.238c0,4.703,0.071,5.844,0.214,8.338c0.071,1.64,0.143,2.565,0.641,4.276c0.428,1.425,1.497,2.066,2.138-0.57
		c0.285-1.212,0.713-4.489,0.57-8.053c-0.071-1.568,0-4.847,0-9.835c0-5.844,0.285-10.762-0.428-12.4
		c-0.998-2.638-1.782-2.281-2.494,0.284C393.835,162.49,393.693,167.55,393.55,179.238z"/>
	<path d="M374.237,181.518c-0.071,2.28,0.143,7.412,2.708,9.265c2.138,1.568,5.203,1.64,7.198,0.285
		c0.998-0.642,1.568-1.71,1.639-3.064c0.071-1.425,0-1.496,0-1.496c0,0.926,0,0-0.071,1.496c-0.071,1.354-0.285,2.209,0.143,3.492
		c0.712,2.28,4.632-0.071,3.991,0c-0.356,0-0.712-0.855-0.926-2.494c-0.214-1.782-0.285-3.563-0.428-5.132
		c-0.214-2.494-0.285-5.701-0.712-6.557c-0.713-1.639-1.853-1.853-2.851,0.071c-0.427,0.784-0.499,2.923-0.57,4.134
		c-0.071,2.067-0.356,3.849-1.497,4.989c-1.069,1.068-3.92,0.641-4.561-0.428c-1.212-2.139-0.927-8.125-1.069-8.553
		c-0.855-2.066-2.352-1.567-2.851,0.071C374.166,178.453,374.237,180.307,374.237,181.518z"/>
	<path d="M472.158,170.472c0,0.427-0.071,3.776-0.285,5.915c-0.071,0.784-2.066,0.499-4.205,0.356
		c-1.639-0.071-1.924,1.924-1.211,2.28c0.855,0.428,3.492-0.499,4.703,0.428c0.642,0.499,0.428,2.352,0.428,3.064
		c0,1.71-0.214,3.421-0.214,5.131c0,1.497,0.143,2.779,1.069,3.991c0.784,0.998,1.995,1.639,3.278,1.853
		c1.212,0.214,2.494,0.428,3.706-0.427c1.282-0.855,1.781-2.566,1.71-3.706c-0.071-1.212-2.637-1.711-3.207-0.499
		c-0.214,0.356-0.356,1.567-1.71,1.425c-1.782-0.214-1.426-3.705-1.426-5.345c0-1.567,0.071-5.131,0.285-5.273
		c1.568-0.927,3.35-0.214,5.273-0.499c0.784-0.143,1.212-2.138-0.427-2.209c-1.782-0.071-4.134,0.498-4.063-0.784
		c0.071-2.637-0.071-3.706,0.071-5.844c0.071-1.212-0.071-6.913-0.356-7.911c-0.428-1.425-3.136-1.496-3.421-0.285
		c-0.214,0.713,0.214,5.701,0.214,6.984C472.158,169.545,472.158,170.329,472.158,170.472z"/>
	<path d="M504.728,183.798c0.285,1.782,0.214,1.782-0.071,3.207c-0.285,1.426-0.784,2.852-0.998,4.276
		c-0.071,0.285-0.071,0.855,0.071,1.212c0.642,1.354,1.925,1.496,2.637,0.214c0.214-0.356,0.927-1.854,1.069-2.708
		c0.285-1.854,0.428-3.065,0.499-4.704c0.071-1.568,0-3.421-0.713-4.847c-0.428-0.783-1.496-1.924-2.565-0.355
		C503.943,181.304,504.514,182.373,504.728,183.798z"/>
	<path d="M512.424,180.734c0,4.704,0.071,5.845,0.214,8.339c0.071,1.639,0.143,2.565,0.713,4.275
		c0.428,1.426,1.711,2.067,2.352-0.569c0.285-1.212,0.784-4.49,0.642-8.054c-0.071-1.567,0-4.846,0-9.835
		c0-5.844,0.285-10.761-0.428-12.4c-1.14-2.637-1.924-2.28-2.708,0.285C512.78,163.987,512.566,169.046,512.424,180.734z"/>
</g>
<g id="Lager_5" display="none">
	<path display="inline" d="M351.146,175.674c-0.285,0.784,0,1.853,0.784,2.352c0.998,0.642,2.352,0.143,2.922-0.926
		c0.428-0.855,0.214-1.996-0.57-2.566C353.213,173.822,351.574,174.462,351.146,175.674z"/>
	<path display="inline" d="M503.729,175.389c-0.285,0.784,0,1.853,0.784,2.352c0.998,0.642,2.352,0.143,2.922-0.926
		c0.428-0.855,0.214-1.996-0.57-2.566C505.868,173.608,504.157,174.177,503.729,175.389z"/>
</g>
<g id="Lager_3">
	<path d="M466.101,185.295c1.425-1.141-1.995-7.056-5.844-7.056c-3.421,0-5.773,2.637-6.913,5.274
		c-1.283,2.851-0.356,6.912,2.423,9.051c1.924,1.496,5.487,1.496,7.626,0.712c2.494-0.926,2.779-3.064,2.352-4.275
		c-0.214-0.57-1.853-1.354-2.494,0.143c-0.855,1.781-3.421,1.639-4.775,1.14c-2.494-0.997-3.064-3.136-2.209-4.204
		C456.979,185.295,464.96,186.222,466.101,185.295z M460.043,181.518c1.354-0.071,2.066,1.069,1.781,1.568
		c-0.143,0.214-0.071,0.356-1.639,0.356c-1.497,0-2.281-0.071-2.353-0.285C457.549,182.658,458.831,181.589,460.043,181.518z"/>
	<path d="M500.023,192.28c-0.428-0.071-0.499-0.428-0.641-0.784c-0.428-1.212-0.143-2.922,0.142-4.917
		c0.428-2.709,0.855-5.203-1.068-6.628c-1.212-0.855-3.064-1.283-3.777-1.354c-3.635-0.214-5.345,1.069-7.27,2.637
		c-2.851,2.494-4.774,7.769-2.708,9.906c2.138,2.209,5.986,1.568,8.409-0.143c2.353-1.567,2.495-3.492,2.709-3.777
		c0.285-0.498-0.713,2.922-0.071,4.989C496.603,195.13,501.592,192.422,500.023,192.28z M492.113,186.65
		c-1.283,1.14-2.993,2.138-3.706,1.425c-0.57-0.57-0.285-1.924,0.285-2.708c1.068-1.568,2.851-1.853,3.207-1.924
		c0.642-0.071,1.354,0.143,1.71,0.641C494.108,184.725,493.182,185.652,492.113,186.65z"/>
	<path d="M429.54,163.701c-0.997,1.639,0.642,5.559,0.784,13.825c0.143,8.98-2.209,12.971-1.141,15.395
		c1.854,4.133,23.162-5.346,23.233-14.896C452.488,167.763,431.037,161.278,429.54,163.701z M438.164,185.794
		c-0.642,0.285-2.21,1.14-3.207,0.356c-0.642-0.57,0.356-1.283,0.427-7.555c0.071-5.273-0.854-7.27-0.284-7.626
		c0.783-0.498,1.995,0.071,2.637,0.285c0.356,0.071,7.625,2.424,7.482,7.483C445.076,182.73,440.801,184.582,438.164,185.794z"/>
	<path d="M529.6,181.518c1.069,0.784,2.209,0.998,1.925-0.642c-0.071-0.428-0.428-1.496-1.069-2.138
		c-0.642-0.713-1.497-1.354-2.352-1.639c-1.925-0.642-4.205-0.285-5.488,1.211c-0.854,1.069-1.211,2.423-0.712,3.563
		c0.355,0.855,1.068,1.64,1.781,2.423c1.426,1.64,2.28,2.779,2.637,3.35c0.356,0.713,0.642,1.069,0.071,1.854
		c-0.285,0.356-1.354,0.428-2.066-0.143c-0.642-0.499-0.713-1.141-1.141-1.925c-0.642-0.997-2.352-1.639-2.922,0.214
		c-0.285,0.927-0.356,3.563,1.853,5.274c1.426,1.14,2.78,1.14,4.276,0.926c2.922-0.428,4.775-3.421,4.348-5.915
		c-0.214-1.425-1.069-3.064-2.494-4.561c-0.927-0.927-1.925-1.354-2.638-1.996c-0.641-0.642-0.214-1.425,0.57-1.639
		C527.533,179.523,528.53,180.734,529.6,181.518z"/>
	<path d="M206.188,187.005c-0.499,5.488,14.396,14.824,27.794,12.899c6.272-0.926,13.398-4.418,13.113-6.983
		c-0.214-2.353-6.699-4.49-8.48-2.709c-2.637,2.709,3.991,14.04,4.988,15.466c16.32,24.088,71.339,15.75,78.252,14.681
		c40.551-6.628,65.708-25.941,78.109-14.609c2.565,2.28,6.415,6.699,5.131,9.407c-0.998,2.138-4.632,2.209-6.485,2.138
		c-2.209-0.071-4.561-0.927-4.704-2.851c-0.071-0.499,0.143-0.998,0.356-1.497c0.285-0.569,0.641-1.068,1.14-1.496
		c0.428-0.356,0.926-0.642,1.497-0.784c0.356-0.143,0.712-0.214,1.069-0.356c0.428-0.143,0.784-0.285,1.212-0.428
		c0.427-0.143,0.855-0.285,1.354-0.428c0.498-0.143,0.997-0.355,1.496-0.498s1.068-0.356,1.568-0.499
		c0.569-0.143,1.14-0.356,1.71-0.499c0.569-0.214,1.212-0.356,1.782-0.499c0.641-0.214,1.282-0.356,1.924-0.499
		c0.641-0.143,1.283-0.356,1.995-0.499c0.713-0.143,1.354-0.356,2.067-0.499c0.712-0.142,1.425-0.284,2.138-0.427
		c0.712-0.143,1.425-0.285,2.138-0.428s1.496-0.285,2.209-0.356c0.713-0.143,1.497-0.214,2.281-0.285c0.071,0,0.214,0,0.285,0
		c18.387-2.209,30.431,1.924,74.402,10.762c25.656,5.131,34.565,6.841,43.402,4.204c11.402-3.421,24.159-16.32,24.373-26.582
		c0.071-3.278-1.354-7.769-3.35-8.054c-2.494-0.356-6.485,5.844-5.131,8.196c0.57,0.926,1.995,1.282,3.35,1.354
		c2.209,0.143,3.706,0,4.489-0.143c8.695-1.71,8.054-1.567,8.909-1.781c2.565-0.642,7.056-2.21,12.115-5.631
		c1.781-1.211,3.421-2.565,4.917-4.062c1.925-1.854,3.92-3.849,4.775-6.414c0.214-0.642,0.071-1.283-0.642-1.497
		c-0.285-0.071-0.642-0.071-0.927-0.071c-3.99,0.428-5.559,4.918-8.195,7.412c-3.706,3.492-8.409,6.129-13.113,8.053
		c0,0-0.071,0-0.071,0.071c-0.428,0.214-3.849,1.925-7.839,2.566c-1.141,0.143-0.998,0.284-2.923,0.213
		c-0.926-0.071-2.28-0.142-2.922-0.783c-0.926-0.998,0.428-3.207,0.57-3.421c0.428-0.57,1.069-0.998,2.067-0.927
		c1.425,0.071,1.924,1.711,2.209,3.278c0.57,3.35-0.998,6.2-1.568,7.056c-2.779,4.348-5.844,8.552-9.692,11.901
		c-4.204,3.635-9.336,5.346-14.752,6.271c-5.416,0.927-9.621,0.855-10.904,0.784c-2.352-0.071-5.701-0.713-12.329-1.853
		c-2.565-0.428-5.986-1.069-11.046-2.067c-6.2-1.211-6.628-1.425-12.188-2.494c-3.634-0.713-3.491-0.642-10.975-2.066
		c-8.552-1.568-9.265-1.782-13.47-2.566c-1.354-0.214-7.91-1.425-13.612-2.209c-14.182-1.995-21.237-2.993-28.863-1.924
		c-8.837,1.282-6.912,1.14-19.242,4.632c-6.485,1.782-11.901,2.565-13.255,5.915c-0.784,1.996,0.143,4.205,1.069,5.417
		c3.35,4.275,12.686,3.35,15.038-1.141c1.282-2.423,0.213-5.273-0.285-6.628c-1.925-5.345-6.985-7.626-8.054-8.124
		c-5.488-2.566-10.975-1.426-16.961,0.071c-13.755,3.35-24.16,7.055-25.799,7.625c-15.323,5.417-27.937,7.412-34.137,8.339
		c-14.539,2.209-25.015,1.924-35.135,1.567c-10.334-0.285-16.748-1.14-23.589-3.563c-8.909-3.136-13.113-6.842-14.539-8.124
		c-5.63-5.273-10.405-13.612-8.552-15.679c1.069-1.141,4.276-0.499,4.49,0.57c0.356,1.425-4.775,4.561-9.764,5.416
		c-6.271,1.069-11.545-1.568-13.255-2.494c-8.125-4.205-11.474-11.76-13.897-10.619
		C206.331,185.438,206.188,186.863,206.188,187.005z"/>
</g>
<g id="Lager_4">
	<polygon points="354.709,178.881 352.856,177.954 351.075,178.952 351.36,176.886 349.863,175.46 351.93,175.104 352.785,173.251 
		353.712,175.104 355.779,175.318 354.353,176.815 	"/>
	<polygon points="507.649,178.667 505.726,177.74 503.872,178.739 504.229,176.672 502.661,175.175 504.728,174.819 
		505.654,172.966 506.651,174.819 508.719,175.104 507.222,176.601 	"/>
</g>
<g id="orginalare" display="none">
	<path display="inline" d="M252.227,38.057c0.784,1.211,1.069,1.924,1.71,2.779c1.568,2.28,2.067,5.202,2.209,7.982
		c0.143,2.708,0,5.416-0.428,8.053c-0.214,1.568-0.57,2.993-0.855,4.49c-0.213,1.068-0.641,2.922,0,3.919
		c0.784,1.212,2.637,1.141,3.849,1.141c5.915,0.143,13.113-1.141,16.178-6.913c0.143-0.214,0.214-0.428,0.285-0.642
		c0.57-1.211,0.784-2.565,0.712-3.919c-0.143-4.276-3.064-7.555-7.34-7.982c-1.354-0.143-1.71-0.143-3.064-0.071
		c-0.143,0-0.356,0-0.285,0c1.283,0.071,2.067,0.143,4.418-3.278c1.853-2.708,2.566-6.271,0.356-8.552
		c-1.782-1.854-4.561-2.565-6.984-2.565c-1.924,0-4.205,0.285-6.058,0.854c-1.71,0.57-3.492,0.927-4.632,2.353
		C251.799,36.346,251.799,37.415,252.227,38.057z"/>
	<path display="inline" d="M281.661,57.513c0.712-0.855,8.837,0.143,9.978-0.784c1.425-1.141-2.138-7.056-6.058-7.056
		c-3.421,0-5.559,2.494-6.699,5.132c-1.283,2.851-0.499,7.055,2.352,9.193c1.924,1.496,5.702,1.567,7.839,0.784
		c2.495-0.927,3.136-2.994,2.779-4.276c-0.143-0.57-2.423-0.713-2.851,0.285c-0.855,1.995-3.777,1.639-4.775,1.282
		C282.159,61.575,280.805,58.51,281.661,57.513z"/>
	<path display="inline" d="M304.608,50.671c-3.706-0.214-5.416,1.069-7.34,2.637c-2.922,2.494-4.846,7.84-2.708,9.978
		c2.138,2.28,5.986,1.567,8.48-0.143c2.352-1.567,2.566-3.492,2.708-3.849c0.285-0.499-0.927,2.993-0.071,4.989
		c0.57,1.496,3.064,2.209,4.347,0.071c0.214-0.356-0.071-0.499-0.214-0.927c-0.428-1.212-0.57-2.922-0.285-4.918
		c0.428-2.779,0.855-5.273-1.14-6.627C307.103,51.17,305.25,50.742,304.608,50.671z"/>
	<path display="inline" d="M312.092,54.377c-0.071,2.28,0.143,7.411,2.708,9.265c2.138,1.567,5.203,1.639,7.198,0.285
		c0.998-0.642,1.497-1.568,1.568-2.922c0-0.143,0-0.143,0-0.143c0,0.926,0-0.356,0,0c-0.071,1.354-0.285,2.209,0.143,3.492
		c0.285,0.783,1.283,1.211,2.28,1.14c0.784-0.071,2.067-0.926,1.782-1.14s-0.713-0.855-0.926-2.495
		c-0.214-1.781-0.285-3.563-0.428-5.131c-0.214-2.494,0-5.915-0.713-6.557c-0.855-0.784-2.209-0.784-2.851,0.071
		c-0.57,0.713-0.499,2.922-0.57,4.134c-0.071,2.066-0.356,3.849-1.497,4.988c-1.069,1.069-3.919,0.642-4.561-0.428
		c-1.211-2.138-0.356-7.768-1.069-8.552c-0.927-0.998-1.924-0.998-2.851,0.071C311.735,51.099,312.092,53.165,312.092,54.377z"/>
	<path display="inline" d="M333.899,43.615c0,0.428-0.071,3.777-0.285,5.915c-0.071,0.784-2.066,0.499-4.205,0.356
		c-1.639-0.071-1.924,1.925-1.211,2.28c0.855,0.428,3.635-0.071,4.989,0.784c0.499,0.285,0.143,1.996,0.143,2.708
		c0,1.711-0.214,3.421-0.214,5.132c0,1.496,0.143,2.779,1.069,3.991c0.784,0.997,1.996,1.639,3.278,1.853
		c1.211,0.214,2.494,0.428,3.706-0.428c1.283-0.855,1.782-2.565,1.71-3.706c-0.071-1.211-2.637-1.71-3.207-0.499
		c-0.214,0.356-0.356,1.568-1.71,1.426c-1.782-0.214-1.425-3.706-1.425-5.345c0-1.568,0.071-5.132,0.285-5.274
		c1.568-0.926,3.35-0.214,5.274-0.499c0.784-0.143,1.211-2.138-0.428-2.209c-1.782-0.071-4.133,0.071-4.133-1.212
		c0.071-2.637,0.214-3.064,0.143-5.345c0-1.069,0-7.198-0.285-8.267c-0.428-1.426-3.278-1.212-3.563,0
		c-0.214,0.713,0.214,5.701,0.214,6.984C333.899,42.617,333.971,43.473,333.899,43.615z"/>
	<path display="inline" d="M347.298,56.729c0.285,1.781,0.214,1.781-0.071,3.207s-0.784,2.851-0.998,4.276
		c-0.071,0.285-0.071,0.854,0.071,1.211c0.642,1.354,1.924,1.497,2.637,0.214c0.214-0.356,0.926-1.853,1.069-2.708
		c0.285-1.853,0.428-3.064,0.499-4.703c0.071-1.568,0-3.421-0.713-4.847c-0.427-0.784-1.497-1.924-2.565-0.356
		C346.442,54.235,347.013,55.303,347.298,56.729z"/>
	<path display="inline" d="M364.972,41.193c0.428,0.855,2.637,1.425,2.922-0.713c0.356-2.28,1.354-5.416-0.57-7.27
		c-2.28-2.209-6.841-1.639-9.122,0.499c-3.706,3.421,0.428,11.901-1.639,13.612c-0.57,0.499-0.998,0-3.207,0.499
		c-0.926,0.214-1.568,2.565-0.285,2.851c1.568,0.356,4.276-0.642,4.348,0c0.712,3.991-0.642,13.185-0.143,14.324
		c1.069,2.638,3.064,1.925,4.347,0.214c1.425-1.853-0.713-11.046,0-14.039c0.214-0.927,2.993,0.214,5.63-0.214
		c1.212-0.214,0.713-2.209-1.069-2.851c-2.067-0.713-4.561-0.071-4.846-0.713c-0.143-0.285-0.57-0.57-0.784-5.915
		c-0.143-2.851-0.071-3.706,0.57-4.205c0.642-0.499,1.853-0.57,2.495,0C364.901,38.199,364.117,39.41,364.972,41.193z"/>
	<path display="inline" d="M388.704,52.096c0,4.704,0.071,5.845,0.214,8.339c0.071,1.639,0.143,2.565,0.641,4.276
		c0.428,1.425,1.497,2.066,2.138-0.57c0.285-1.212,0.713-4.49,0.57-8.054c-0.071-1.567,0-4.846,0-9.835
		c0-5.844,0.285-10.761-0.428-12.4c-0.998-2.637-1.782-2.28-2.494,0.285C388.989,35.349,388.775,40.408,388.704,52.096z"/>
	<path display="inline" d="M369.319,54.377c-0.071,2.28,0.143,7.411,2.708,9.265c2.138,1.567,5.203,1.639,7.198,0.285
		c0.998-0.642,1.568-1.711,1.639-3.064c0.071-1.426,0-1.497,0-1.497c0,0.927,0,0-0.071,1.497c-0.071,1.354-0.285,2.209,0.143,3.492
		c0.712,2.28,4.632-0.071,3.991,0c-0.356,0-0.712-0.855-0.926-2.495c-0.214-1.781-0.285-3.563-0.428-5.131
		c-0.214-2.494-0.285-5.701-0.712-6.557c-0.713-1.639-1.853-1.853-2.851,0.071c-0.427,0.784-0.499,2.922-0.57,4.134
		c-0.071,2.066-0.356,3.849-1.497,4.988c-1.069,1.069-3.92,0.642-4.561-0.428c-1.212-2.138-0.927-8.124-1.069-8.552
		c-0.855-2.066-2.352-1.567-2.851,0.071C369.248,51.313,369.319,53.165,369.319,54.377z"/>
	<path display="inline" fill="#FFFFFF" d="M257.786,37.914c-0.071,0.214,0.427-0.071,1.14,2.352c0.784,2.565,0.57,2.565,0.712,2.779
		c1.71,1.426,6.984-0.854,6.842-2.851c-0.143-1.068-0.712-2.352-2.779-2.851C261.349,36.774,258.213,37.059,257.786,37.914z"/>
	<path display="inline" fill="#FFFFFF" d="M260.423,51.669c-0.285,0.285,0.356,2.209-0.143,4.774
		c-0.499,2.922-0.998,3.706-0.712,3.991c1.283,1.71,9.193,0.428,10.262-2.066c0.784-1.925,0-4.775-2.138-6.272
		C265.625,50.671,261.278,50.814,260.423,51.669z"/>
	<path display="inline" d="M467.313,43.33c0,0.428-0.071,3.777-0.285,5.915c-0.071,0.784-2.067,0.499-4.205,0.356
		c-1.64-0.071-1.924,1.925-1.212,2.281c0.855,0.427,3.492-0.499,4.704,0.427c0.642,0.499,0.428,2.353,0.428,3.064
		c0,1.711-0.214,3.421-0.214,5.132c0,1.496,0.143,2.779,1.068,3.991c0.784,0.997,1.996,1.639,3.278,1.853
		c1.212,0.214,2.495,0.428,3.706-0.428c1.283-0.855,1.782-2.565,1.711-3.706c-0.071-1.211-2.637-1.71-3.207-0.499
		c-0.214,0.356-0.356,1.568-1.711,1.426c-1.781-0.214-1.425-3.706-1.425-5.345c0-1.568,0.071-5.132,0.285-5.274
		c1.567-0.926,3.35-0.214,5.273-0.498c0.784-0.143,1.212-2.139-0.428-2.21c-1.781-0.071-4.134,0.499-4.063-0.784
		c0.071-2.637-0.071-3.705,0.071-5.844c0.071-1.211-0.071-6.913-0.356-7.91c-0.427-1.426-3.136-1.497-3.42-0.285
		c-0.214,0.713,0.213,5.701,0.213,6.984C467.241,42.333,467.313,43.188,467.313,43.33z"/>
	<path display="inline" d="M499.881,56.657c0.285,1.782,0.214,1.782-0.071,3.207c-0.285,1.426-0.783,2.851-0.997,4.276
		c-0.071,0.285-0.071,0.854,0.071,1.211c0.641,1.354,1.924,1.497,2.637,0.214c0.214-0.356,0.927-1.853,1.069-2.708
		c0.284-1.853,0.427-3.064,0.498-4.703c0.071-1.568,0-3.421-0.712-4.847c-0.428-0.784-1.497-1.924-2.566-0.356
		C499.026,54.163,499.596,55.233,499.881,56.657z"/>
	<path display="inline" d="M507.578,53.593c0,4.704,0.071,5.844,0.214,8.338c0.071,1.64,0.143,2.566,0.713,4.276
		c0.428,1.426,1.71,2.066,2.352-0.57c0.285-1.211,0.784-4.489,0.642-8.053c-0.071-1.568,0-4.847,0-9.835
		c0-5.844,0.285-10.762-0.428-12.4c-1.141-2.637-1.925-2.281-2.708,0.285C507.863,36.845,507.649,41.906,507.578,53.593z"/>
	<path display="inline" d="M451.349,58.938c0.712-0.854,8.766,0.143,9.905-0.783c1.426-1.141-1.995-7.056-5.844-7.056
		c-3.421,0-5.772,2.637-6.913,5.273c-1.282,2.851-0.356,6.913,2.424,9.051c1.853,1.497,5.487,1.497,7.625,0.713
		c2.494-0.927,2.779-3.064,2.281-4.276c-0.214-0.569-1.854-1.354-2.495,0.143c-0.854,1.782-3.421,1.711-4.774,1.141
		C451.063,62.216,450.493,60.007,451.349,58.938z"/>
	<path display="inline" d="M489.833,51.384c-3.635-0.214-5.346,1.068-7.27,2.637c-2.851,2.494-4.775,7.768-2.708,9.906
		c2.138,2.28,5.986,1.567,8.409-0.143c2.352-1.568,2.494-3.492,2.708-3.777c0.285-0.499-0.713,2.922-0.071,4.988
		c0.855,2.994,5.844,0.214,4.276,0.071c-0.428-0.071-0.499-0.427-0.642-0.854c-0.428-1.212-0.143-2.922,0.143-4.918
		c0.428-2.708,0.855-5.202-1.069-6.628C492.398,51.883,490.474,51.455,489.833,51.384z"/>
	<path display="inline" d="M424.694,36.56c-0.998,1.64,0.642,5.56,0.784,13.826c0.142,8.979-2.139,12.971-1.141,15.394
		c1.853,4.134,23.162-5.345,23.233-14.895C447.571,40.622,426.119,34.137,424.694,36.56z"/>
	<path display="inline" d="M524.683,54.377c1.068,0.784,2.209,0.997,1.924-0.642c-0.071-0.428-0.428-1.497-1.069-2.138
		c-0.641-0.713-1.496-1.354-2.352-1.64c-1.924-0.642-4.205-0.285-5.487,1.212c-0.855,1.068-1.212,2.423-0.713,3.563
		c0.356,0.854,1.069,1.639,1.781,2.423c1.426,1.639,2.281,2.779,2.638,3.35c0.356,0.713,0.641,1.069,0.071,1.853
		c-0.285,0.356-1.354,0.428-2.067-0.143c-0.642-0.499-0.712-1.14-1.14-1.924c-0.642-0.998-2.353-1.64-2.922,0.214
		c-0.285,0.927-0.356,3.563,1.853,5.273c1.426,1.141,2.779,1.141,4.276,0.927c2.922-0.428,4.774-3.421,4.347-5.915
		c-0.214-1.426-1.068-3.064-2.494-4.562c-0.927-0.927-1.924-1.354-2.637-1.995c-0.642-0.642-0.214-1.426,0.57-1.64
		C522.615,52.31,523.613,53.593,524.683,54.377z"/>
	<path display="inline" fill="#FFFFFF" d="M430.253,43.758c-0.57,0.356,0.356,2.423,0.285,7.626
		c-0.071,6.343-1.069,7.056-0.428,7.554c0.927,0.784,2.565-0.071,3.207-0.356c2.637-1.211,6.913-3.064,7.056-7.126
		c0.143-5.061-7.127-7.341-7.412-7.483C432.248,43.829,431.037,43.259,430.253,43.758z"/>
	<path display="inline" fill="#FFFFFF" d="M283.157,54.591c0.143,0.214,0.926,0.214,2.352,0.214c1.497,0,1.426-0.143,1.568-0.285
		c0.285-0.428-0.427-1.568-1.71-1.497C284.155,53.094,282.872,54.163,283.157,54.591z"/>
	<path display="inline" fill="#FFFFFF" d="M301.758,55.374c-0.356,0.071-2.209,0.356-3.35,1.996c-0.57,0.855-0.926,2.28-0.285,2.922
		c0.713,0.713,2.495-0.285,3.92-1.497c1.14-0.997,2.138-1.995,1.639-2.779C303.254,55.446,302.399,55.233,301.758,55.374z"/>
	<path display="inline" fill="#FFFFFF" d="M452.916,55.945c0.143,0.214,0.855,0.285,2.352,0.285c1.568,0,1.497-0.143,1.64-0.356
		c0.285-0.499-0.428-1.639-1.782-1.567C453.914,54.448,452.631,55.517,452.916,55.945z"/>
	<path display="inline" fill="#FFFFFF" d="M486.981,56.301c-0.355,0.071-2.138,0.356-3.207,1.925
		c-0.569,0.854-0.854,2.138-0.285,2.708c0.713,0.713,2.353-0.285,3.706-1.426c1.069-0.998,1.996-1.924,1.497-2.637
		C488.407,56.372,487.623,56.158,486.981,56.301z"/>
	<path display="inline" d="M201.271,59.793c-0.499,5.487,14.396,14.823,27.794,12.899c6.271-0.927,13.398-4.419,13.113-6.984
		c-0.143-2.28-6.627-4.418-8.409-2.637c-2.637,2.708,3.991,14.04,4.989,15.465c16.32,24.089,71.338,15.75,78.251,14.682
		c40.551-6.628,65.708-25.941,78.109-14.61c2.565,2.281,6.414,6.699,5.131,9.407c-0.998,2.139-4.632,2.21-6.485,2.139
		c-2.209-0.071-4.561-0.927-4.704-2.851c-0.071-0.499,0.143-0.998,0.356-1.497c0.285-0.57,0.641-1.069,1.14-1.497
		c0.428-0.355,0.926-0.641,1.497-0.783c0.356-0.143,0.713-0.214,1.069-0.356c0.428-0.143,0.784-0.285,1.212-0.428
		c0.427-0.143,0.855-0.285,1.354-0.428c0.499-0.143,0.998-0.356,1.497-0.499c0.499-0.143,1.069-0.356,1.568-0.499
		c0.57-0.143,1.14-0.356,1.71-0.498c0.57-0.214,1.211-0.356,1.782-0.499c0.642-0.214,1.282-0.356,1.924-0.499
		s1.283-0.356,1.995-0.499c0.713-0.143,1.354-0.356,2.067-0.499s1.425-0.285,2.138-0.428s1.426-0.285,2.139-0.428
		s1.496-0.284,2.209-0.355c0.713-0.143,1.496-0.214,2.28-0.285c0.071,0,0.214,0,0.285,0c18.387-2.21,30.432,1.924,74.403,10.761
		c25.656,5.132,34.564,6.842,43.401,4.205c11.403-3.421,24.16-16.32,24.374-26.583c0.071-3.278-1.354-7.768-3.35-8.053
		c-2.494-0.356-6.485,5.844-5.132,8.195c0.57,0.927,1.996,1.283,3.35,1.354c2.21,0.143,3.706,0,4.49-0.143
		c8.694-1.711,8.053-1.568,8.908-1.782c2.565-0.641,7.056-2.209,12.115-5.63c1.782-1.211,3.421-2.565,4.918-4.063
		c1.924-1.853,3.92-3.848,4.774-6.414c0.214-0.641,0.071-1.282-0.641-1.496c-0.285-0.071-0.642-0.071-0.927-0.071
		c-3.991,0.428-5.559,4.917-8.195,7.412c-3.706,3.492-8.41,6.129-13.113,8.053c0,0-0.071,0-0.071,0.071
		c-0.428,0.214-3.849,1.924-7.84,2.565c-1.141,0.143-0.998,0.285-2.922,0.214c-0.927-0.071-2.28-0.143-2.922-0.784
		c-0.927-0.997,0.428-3.207,0.57-3.42c0.428-0.57,1.068-0.998,2.066-0.927c1.426,0.071,1.925,1.71,2.209,3.278
		c0.57,3.35-0.997,6.2-1.567,7.056c-2.779,4.347-5.844,8.552-9.692,11.901c-4.205,3.635-9.336,5.345-14.753,6.271
		c-5.416,0.927-9.621,0.855-10.903,0.784c-2.352-0.071-5.701-0.713-12.329-1.854c-2.566-0.428-5.986-1.068-11.047-2.066
		c-6.2-1.212-6.628-1.426-12.187-2.494c-3.635-0.713-3.492-0.642-10.976-2.067c-8.552-1.567-9.265-1.781-13.469-2.565
		c-1.354-0.214-7.911-1.425-13.612-2.209c-14.183-1.996-21.238-2.993-28.863-1.925c-8.838,1.283-6.913,1.141-19.242,4.633
		c-6.485,1.781-11.902,2.565-13.256,5.915c-0.784,1.996,0.143,4.205,1.069,5.416c3.35,4.276,12.686,3.35,15.038-1.14
		c1.282-2.423,0.214-5.274-0.285-6.628c-1.924-5.345-6.984-7.626-8.053-8.125c-5.488-2.565-10.975-1.425-16.961,0.071
		c-13.755,3.35-24.16,7.056-25.799,7.626c-15.323,5.416-27.937,7.412-34.137,8.338c-14.539,2.21-25.015,1.925-35.135,1.568
		c-10.334-0.285-16.748-1.141-23.589-3.563c-8.909-3.136-13.113-6.842-14.539-8.124c-5.63-5.274-10.405-13.612-8.552-15.68
		c1.069-1.14,4.276-0.498,4.49,0.57c0.356,1.426-4.775,4.562-9.764,5.417c-6.271,1.068-11.545-1.568-13.255-2.495
		c-8.125-4.204-11.474-11.759-13.897-10.618C201.414,58.297,201.271,59.722,201.271,59.793z"/>
	<polygon display="inline" points="349.863,51.74 348.01,50.742 346.158,51.812 346.514,49.744 344.946,48.32 347.013,47.963 
		347.868,46.11 348.866,47.963 350.933,48.177 349.436,49.673 	"/>
	<polygon display="inline" points="502.731,51.527 500.879,50.6 499.026,51.598 499.312,49.531 497.743,48.034 499.881,47.678 
		500.808,45.753 501.734,47.678 503.872,47.963 502.376,49.459 	"/>
</g>
</svg>
