<?xml version="1.0" encoding="utf-8"?>
<!-- Generator: Adobe Illustrator 22.0.1, SVG Export Plug-In . SVG Version: 6.00 Build 0)  -->
<svg version="1.1" id="Lager_1" xmlns="http://www.w3.org/2000/svg" xmlns:xlink="http://www.w3.org/1999/xlink" x="0px" y="0px"
	 viewBox="0 0 567.2 103.9" style="enable-background:new 0 0 567.2 103.9;" xml:space="preserve">
<style type="text/css">
	.st0{fill:#FFFFFF;}
	.st1{display:none;}
	.st2{display:inline;}
</style>
<g id="Lager_1_1_">
</g>
<g id="Lager_2_1_">
	<path class="st0" d="M104.2,28.4c-1.4-0.1-2.1-0.2-3.1-0.2c1.1-0.2,2.3-1.2,4.6-4.5c2.6-3.8,3.6-8.8,0.5-12
		c-2.5-2.6-6.4-3.6-9.8-3.5c-2.7,0-5.9,0.4-8.5,1.2c-2.4,0.8-4.9,1.3-6.5,3.3c-0.8,1-0.8,2.4-0.2,3.3c1.1,1.7,1.5,2.7,2.4,3.9
		c2.2,3.3,2.9,7.3,3.1,11.2c0.2,3.8,0,7.6-0.5,11.3c-0.3,2.1-0.9,4.2-1.2,6.3c-0.3,1.5-0.9,4.1,0,5.5c1.1,1.7,3.7,1.6,5.4,1.6
		c8.3,0.2,18.4-1.6,22.7-9.7c0.2-0.3,0.3-0.6,0.4-0.9c0.8-1.7,1.1-3.6,1-5.5C114.3,33.6,110.1,29,104.2,28.4z M88.9,15.7
		c0.7-1.2,5-1.5,8.3-0.8c2.9,0.7,3.8,2.5,4,4c0.3,2.8-7.1,6-9.6,4c-0.3-0.2,0.1-0.2-1-3.9C89.5,15.6,88.8,15.9,88.9,15.7z
		 M105.8,44.4c-1.4,3.5-12.5,5.4-14.4,2.9c-0.3-0.5,0.3-1.6,1.1-5.6c0.6-3.6-0.2-6.3,0.2-6.7c1.2-1.2,7.3-1.4,10.1,0.6
		C105.8,37.7,106.9,41.6,105.8,44.4z"/>
	<path class="st0" d="M132.6,47.9c-1.2,2.8-5.3,2.3-6.7,1.8c-2.8-0.8-4.7-5-3.5-6.5c1-1.2,12.4,0.2,14-1.1c2-1.6-3-9.9-8.5-9.9
		c-4.8,0-7.8,3.5-9.4,7.2c-1.8,4-0.7,9.9,3.3,12.9c2.7,2.1,8,2.2,11,1.1c3.5-1.3,4.4-4.2,3.9-6C136.5,46.6,133.3,46.4,132.6,47.9z
		 M127.6,36.9c1.8-0.1,2.8,1.4,2.4,2.1c-0.2,0.3-0.1,0.5-2.2,0.4c-2,0-3.2,0-3.3-0.3C124.1,38.5,126,37,127.6,36.9z"/>
	<path class="st0" d="M161.8,51.7c-0.6-1.7-0.8-4.1-0.4-6.9c0.6-3.9,1.2-7.4-1.5-9.3c-1.7-1.2-4.4-1.9-5.3-1.9
		c-5.1-0.3-7.6,1.5-10.3,3.8c-4.1,3.5-6.8,11-3.8,14c3,3.2,8.4,2.2,11.9-0.2c3.3-2.2,3.6-4.9,3.8-5.4c0.4-0.7-1.3,4.2-0.1,7
		c0.8,2.1,4.3,3,6.1,0.1C162.5,52.5,162.1,52.3,161.8,51.7z M151,45c-1.9,1.7-4.4,3.1-5.5,2.1c-0.9-0.9-0.4-2.8,0.4-4.1
		c1.6-2.3,4.2-2.8,4.7-2.8c0.9-0.1,2.1,0.2,2.6,0.9C154,42.1,152.6,43.5,151,45z"/>
	<path class="st0" d="M165.1,38.8c-0.1,3.2,0.2,10.4,3.8,13c3,2.2,7.3,2.3,10.1,0.4c1.4-0.9,2.1-2.2,2.2-4.1c0-0.2,0-0.2,0-0.2
		c0,1.3,0-0.5,0,0c-0.1,1.9-0.4,3.1,0.2,4.9c0.4,1.1,1.8,1.7,3.2,1.6c1.1-0.1,2.9-1.3,2.5-1.6c-0.4-0.3-1-1.2-1.3-3.5
		c-0.3-2.5-0.4-5-0.6-7.2c-0.3-3.5,0-8.3-1-9.2c-1.2-1.1-3.1-1.1-4,0.1c-0.8,1-0.7,4.1-0.8,5.8c-0.1,2.9-0.5,5.4-2.1,7
		c-1.5,1.5-5.5,0.9-6.4-0.6c-1.7-3-0.5-10.9-1.5-12c-1.3-1.4-2.7-1.4-4,0.1C164.6,34.2,165.2,37.1,165.1,38.8z"/>
	<path class="st0" d="M195.8,23.7c0,0.6-0.1,5.3-0.4,8.3c-0.1,1.1-2.9,0.7-5.9,0.5c-2.3-0.1-2.7,2.7-1.7,3.2c1.2,0.6,5.1-0.1,7,1.1
		c0.7,0.4,0.2,2.8,0.2,3.8c0,2.4-0.3,4.8-0.3,7.2c0,2.1,0.2,3.9,1.5,5.6c1.1,1.4,2.8,2.3,4.6,2.6c1.7,0.3,3.5,0.6,5.2-0.6
		c1.8-1.2,2.5-3.6,2.4-5.2c-0.1-1.7-3.7-2.4-4.5-0.7c-0.3,0.5-0.5,2.2-2.4,2c-2.5-0.3-2-5.2-2-7.5c0-2.2,0.1-7.2,0.4-7.4
		c2.2-1.3,4.7-0.3,7.4-0.7c1.1-0.2,1.7-3-0.6-3.1c-2.5-0.1-5.8,0.1-5.8-1.7c0.1-3.7,0.3-4.3,0.2-7.5c0-1.5,0-10.1-0.4-11.6
		c-0.6-2-4.6-1.7-5,0c-0.3,1,0.3,8,0.3,9.8C195.8,22.3,195.8,23.5,195.8,23.7z"/>
	<path class="st0" d="M214.5,42.1c0.4,2.5,0.3,2.5-0.1,4.5c-0.4,2-1.1,4-1.4,6c-0.1,0.4-0.1,1.2,0.1,1.7c0.9,1.9,2.7,2.1,3.7,0.3
		c0.3-0.5,1.3-2.6,1.5-3.8c0.4-2.6,0.6-4.3,0.7-6.6c0.1-2.2,0-4.8-1-6.8c-0.6-1.1-2.1-2.7-3.6-0.5C213.4,38.6,214.2,40.1,214.5,42.1
		z"/>
	<path class="st0" d="M239.3,20.3c0.6,1.2,3.7,2,4.1-1c0.5-3.2,1.9-7.6-0.8-10.2c-3.2-3.1-9.6-2.3-12.8,0.7
		c-5.2,4.8,0.6,16.7-2.3,19.1c-0.8,0.7-1.4,0-4.5,0.7c-1.3,0.3-2.2,3.6-0.4,4c2.2,0.5,6-0.9,6.1,0c1,5.6-0.9,18.5-0.2,20.1
		c1.5,3.7,4.3,2.7,6.1,0.3c2-2.6-1-15.5,0-19.7c0.3-1.3,4.2,0.3,7.9-0.3c1.7-0.3,1-3.1-1.5-4c-2.9-1-6.4-0.1-6.8-1
		c-0.2-0.4-0.8-0.8-1.1-8.3c-0.2-4-0.1-5.2,0.8-5.9c0.9-0.7,2.6-0.8,3.5,0C239.2,16.1,238.2,17.8,239.3,20.3z"/>
	<path class="st0" d="M272.6,35.6c0,6.6,0.1,8.2,0.3,11.7c0.1,2.3,0.2,3.6,0.9,6c0.6,2,2.1,2.9,3-0.8c0.4-1.7,1-6.3,0.8-11.3
		c-0.1-2.2,0-6.8,0-13.8c0-8.2,0.4-15.1-0.6-17.4c-1.4-3.7-2.5-3.2-3.5,0.4C273,12.1,272.8,19.2,272.6,35.6z"/>
	<path class="st0" d="M245.5,38.8c-0.1,3.2,0.2,10.4,3.8,13c3,2.2,7.3,2.3,10.1,0.4c1.4-0.9,2.2-2.4,2.3-4.3c0.1-2,0-2.1,0-2.1
		c0,1.3,0,0-0.1,2.1c-0.1,1.9-0.4,3.1,0.2,4.9c1,3.2,6.5-0.1,5.6,0c-0.5,0-1-1.2-1.3-3.5c-0.3-2.5-0.4-5-0.6-7.2
		c-0.3-3.5-0.4-8-1-9.2c-1-2.3-2.6-2.6-4,0.1c-0.6,1.1-0.7,4.1-0.8,5.8c-0.1,2.9-0.5,5.4-2.1,7c-1.5,1.5-5.5,0.9-6.4-0.6
		c-1.7-3-1.3-11.4-1.5-12c-1.2-2.9-3.3-2.2-4,0.1C245.4,34.5,245.5,37.1,245.5,38.8z"/>
	<path class="st0" d="M382.9,23.3c0,0.6-0.1,5.3-0.4,8.3c-0.1,1.1-2.9,0.7-5.9,0.5c-2.3-0.1-2.7,2.7-1.7,3.2
		c1.2,0.6,4.9-0.7,6.6,0.6c0.9,0.7,0.6,3.3,0.6,4.3c0,2.4-0.3,4.8-0.3,7.2c0,2.1,0.2,3.9,1.5,5.6c1.1,1.4,2.8,2.3,4.6,2.6
		c1.7,0.3,3.5,0.6,5.2-0.6c1.8-1.2,2.5-3.6,2.4-5.2c-0.1-1.7-3.7-2.4-4.5-0.7c-0.3,0.5-0.5,2.2-2.4,2c-2.5-0.3-2-5.2-2-7.5
		c0-2.2,0.1-7.2,0.4-7.4c2.2-1.3,4.7-0.3,7.4-0.7c1.1-0.2,1.7-3-0.6-3.1c-2.5-0.1-5.8,0.7-5.7-1.1c0.1-3.7-0.1-5.2,0.1-8.2
		c0.1-1.7-0.1-9.7-0.5-11.1c-0.6-2-4.4-2.1-4.8-0.4c-0.3,1,0.3,8,0.3,9.8C382.9,22,382.9,23.1,382.9,23.3z"/>
	<path class="st0" d="M428.6,42c0.4,2.5,0.3,2.5-0.1,4.5s-1.1,4-1.4,6c-0.1,0.4-0.1,1.2,0.1,1.7c0.9,1.9,2.7,2.1,3.7,0.3
		c0.3-0.5,1.3-2.6,1.5-3.8c0.4-2.6,0.6-4.3,0.7-6.6c0.1-2.2,0-4.8-1-6.8c-0.6-1.1-2.1-2.7-3.6-0.5C427.5,38.5,428.3,40,428.6,42z"/>
	<path class="st0" d="M439.4,37.7c0,6.6,0.1,8.2,0.3,11.7c0.1,2.3,0.2,3.6,1,6c0.6,2,2.4,2.9,3.3-0.8c0.4-1.7,1.1-6.3,0.9-11.3
		c-0.1-2.2,0-6.8,0-13.8c0-8.2,0.4-15.1-0.6-17.4c-1.6-3.7-2.7-3.2-3.8,0.4C439.9,14.2,439.6,21.3,439.4,37.7z"/>
</g>
<g id="Lager_5" class="st1">
	<path class="st2" d="M213.1,228.5c-0.4,1.1,0,2.6,1.1,3.3c1.4,0.9,3.3,0.2,4.1-1.3c0.6-1.2,0.3-2.8-0.8-3.6
		C216,225.9,213.7,226.8,213.1,228.5z"/>
	<path class="st2" d="M427.2,228.1c-0.4,1.1,0,2.6,1.1,3.3c1.4,0.9,3.3,0.2,4.1-1.3c0.6-1.2,0.3-2.8-0.8-3.6
		C430.2,225.6,427.8,226.4,427.2,228.1z"/>
</g>
<g id="Lager_3">
	<path class="st0" d="M374.4,44.1c2-1.6-2.8-9.9-8.2-9.9c-4.8,0-8.1,3.7-9.7,7.4c-1.8,4-0.5,9.7,3.4,12.7c2.7,2.1,7.7,2.1,10.7,1
		c3.5-1.3,3.9-4.3,3.3-6c-0.3-0.8-2.6-1.9-3.5,0.2c-1.2,2.5-4.8,2.3-6.7,1.6c-3.5-1.4-4.3-4.4-3.1-5.9
		C361.6,44.1,372.8,45.4,374.4,44.1z M365.9,38.8c1.9-0.1,2.9,1.5,2.5,2.2c-0.2,0.3-0.1,0.5-2.3,0.5c-2.1,0-3.2-0.1-3.3-0.4
		C362.4,40.4,364.2,38.9,365.9,38.8z"/>
	<path class="st0" d="M422,53.9c-0.6-0.1-0.7-0.6-0.9-1.1c-0.6-1.7-0.2-4.1,0.2-6.9c0.6-3.8,1.2-7.3-1.5-9.3
		c-1.7-1.2-4.3-1.8-5.3-1.9c-5.1-0.3-7.5,1.5-10.2,3.7c-4,3.5-6.7,10.9-3.8,13.9c3,3.1,8.4,2.2,11.8-0.2c3.3-2.2,3.5-4.9,3.8-5.3
		c0.4-0.7-1,4.1-0.1,7C417.2,57.9,424.2,54.1,422,53.9z M410.9,46c-1.8,1.6-4.2,3-5.2,2c-0.8-0.8-0.4-2.7,0.4-3.8
		c1.5-2.2,4-2.6,4.5-2.7c0.9-0.1,1.9,0.2,2.4,0.9C413.7,43.3,412.4,44.6,410.9,46z"/>
	<path class="st0" d="M323.1,13.8c-1.4,2.3,0.9,7.8,1.1,19.4c0.2,12.6-3.1,18.2-1.6,21.6c2.6,5.8,32.5-7.5,32.6-20.9
		C355.3,19.5,325.2,10.4,323.1,13.8z M335.2,44.8c-0.9,0.4-3.1,1.6-4.5,0.5c-0.9-0.8,0.5-1.8,0.6-10.6c0.1-7.4-1.2-10.2-0.4-10.7
		c1.1-0.7,2.8,0.1,3.7,0.4c0.5,0.1,10.7,3.4,10.5,10.5C344.9,40.5,338.9,43.1,335.2,44.8z"/>
	<path class="st0" d="M463.5,38.8c1.5,1.1,3.1,1.4,2.7-0.9c-0.1-0.6-0.6-2.1-1.5-3c-0.9-1-2.1-1.9-3.3-2.3c-2.7-0.9-5.9-0.4-7.7,1.7
		c-1.2,1.5-1.7,3.4-1,5c0.5,1.2,1.5,2.3,2.5,3.4c2,2.3,3.2,3.9,3.7,4.7c0.5,1,0.9,1.5,0.1,2.6c-0.4,0.5-1.9,0.6-2.9-0.2
		c-0.9-0.7-1-1.6-1.6-2.7c-0.9-1.4-3.3-2.3-4.1,0.3c-0.4,1.3-0.5,5,2.6,7.4c2,1.6,3.9,1.6,6,1.3c4.1-0.6,6.7-4.8,6.1-8.3
		c-0.3-2-1.5-4.3-3.5-6.4c-1.3-1.3-2.7-1.9-3.7-2.8c-0.9-0.9-0.3-2,0.8-2.3C460.6,36,462,37.7,463.5,38.8z"/>
	<path class="st0" d="M9.7,46.5c-0.7,7.7,20.2,20.8,39,18.1c8.8-1.3,18.8-6.2,18.4-9.8c-0.3-3.3-9.4-6.3-11.9-3.8
		c-3.7,3.8,5.6,19.7,7,21.7C85.1,106.5,162.3,94.8,172,93.3c56.9-9.3,92.2-36.4,109.6-20.5c3.6,3.2,9,9.4,7.2,13.2
		c-1.4,3-6.5,3.1-9.1,3c-3.1-0.1-6.4-1.3-6.6-4c-0.1-0.7,0.2-1.4,0.5-2.1c0.4-0.8,0.9-1.5,1.6-2.1c0.6-0.5,1.3-0.9,2.1-1.1
		c0.5-0.2,1-0.3,1.5-0.5c0.6-0.2,1.1-0.4,1.7-0.6s1.2-0.4,1.9-0.6c0.7-0.2,1.4-0.5,2.1-0.7s1.5-0.5,2.2-0.7c0.8-0.2,1.6-0.5,2.4-0.7
		c0.8-0.3,1.7-0.5,2.5-0.7c0.9-0.3,1.8-0.5,2.7-0.7c0.9-0.2,1.8-0.5,2.8-0.7s1.9-0.5,2.9-0.7s2-0.4,3-0.6s2-0.4,3-0.6
		s2.1-0.4,3.1-0.5c1-0.2,2.1-0.3,3.2-0.4c0.1,0,0.3,0,0.4,0c25.8-3.1,42.7,2.7,104.4,15.1c36,7.2,48.5,9.6,60.9,5.9
		c16-4.8,33.9-22.9,34.2-37.3c0.1-4.6-1.9-10.9-4.7-11.3c-3.5-0.5-9.1,8.2-7.2,11.5c0.8,1.3,2.8,1.8,4.7,1.9c3.1,0.2,5.2,0,6.3-0.2
		c12.2-2.4,11.3-2.2,12.5-2.5c3.6-0.9,9.9-3.1,17-7.9c2.5-1.7,4.8-3.6,6.9-5.7c2.7-2.6,5.5-5.4,6.7-9c0.3-0.9,0.1-1.8-0.9-2.1
		c-0.4-0.1-0.9-0.1-1.3-0.1c-5.6,0.6-7.8,6.9-11.5,10.4c-5.2,4.9-11.8,8.6-18.4,11.3c0,0-0.1,0-0.1,0.1c-0.6,0.3-5.4,2.7-11,3.6
		c-1.6,0.2-1.4,0.4-4.1,0.3c-1.3-0.1-3.2-0.2-4.1-1.1c-1.3-1.4,0.6-4.5,0.8-4.8c0.6-0.8,1.5-1.4,2.9-1.3c2,0.1,2.7,2.4,3.1,4.6
		c0.8,4.7-1.4,8.7-2.2,9.9c-3.9,6.1-8.2,12-13.6,16.7c-5.9,5.1-13.1,7.5-20.7,8.8S459.8,89,458,88.9c-3.3-0.1-8-1-17.3-2.6
		c-3.6-0.6-8.4-1.5-15.5-2.9c-8.7-1.7-9.3-2-17.1-3.5c-5.1-1-4.9-0.9-15.4-2.9c-12-2.2-13-2.5-18.9-3.6c-1.9-0.3-11.1-2-19.1-3.1
		c-19.9-2.8-29.8-4.2-40.5-2.7c-12.4,1.8-9.7,1.6-27,6.5c-9.1,2.5-16.7,3.6-18.6,8.3c-1.1,2.8,0.2,5.9,1.5,7.6
		c4.7,6,17.8,4.7,21.1-1.6c1.8-3.4,0.3-7.4-0.4-9.3c-2.7-7.5-9.8-10.7-11.3-11.4c-7.7-3.6-15.4-2-23.8,0.1
		c-19.3,4.7-33.9,9.9-36.2,10.7c-21.5,7.6-39.2,10.4-47.9,11.7c-20.4,3.1-35.1,2.7-49.3,2.2c-14.5-0.4-23.5-1.6-33.1-5
		C76.7,83,70.8,77.8,68.8,76c-7.9-7.4-14.6-19.1-12-22c1.5-1.6,6-0.7,6.3,0.8c0.5,2-6.7,6.4-13.7,7.6c-8.8,1.5-16.2-2.2-18.6-3.5
		C19.4,53,14.7,42.4,11.3,44C9.9,44.3,9.7,46.3,9.7,46.5z"/>
</g>
<g id="Lager_4">
	<polygon class="st0" points="218.1,35.1 215.5,33.8 213,35.2 213.4,32.3 211.3,30.3 214.2,29.8 215.4,27.2 216.7,29.8 219.6,30.1 
		217.6,32.2 	"/>
	<polygon class="st0" points="432.7,34.8 430,33.5 427.4,34.9 427.9,32 425.7,29.9 428.6,29.4 429.9,26.8 431.3,29.4 434.2,29.8 
		432.1,31.9 	"/>
</g>
<g id="Lager_6" class="st1">
	<path class="st2" d="M112.1,367.1c1.1,1.7,1.5,2.7,2.4,3.9c2.2,3.2,2.9,7.3,3.1,11.2c0.2,3.8,0,7.6-0.6,11.3
		c-0.3,2.1-0.9,4.2-1.2,6.3c-0.3,1.5-0.9,4.1,0,5.5c1.1,1.7,3.7,1.6,5.4,1.6c8.3,0.2,18.4-1.6,22.7-9.7c0.2-0.3,0.3-0.6,0.4-0.9
		c0.8-1.7,1.1-3.6,1-5.5c-0.2-6-4.3-10.6-10.3-11.2c-1.9-0.2-2.4-0.2-4.3-0.1c-0.2,0-0.5,0-0.4,0c1.8,0.1,2.9,0.2,6.2-4.6
		c2.6-3.8,3.6-8.8,0.5-12c-2.5-2.6-6.4-3.6-9.8-3.6c-2.7,0-5.9,0.4-8.5,1.2c-2.4,0.8-4.9,1.3-6.5,3.3
		C111.5,364.7,111.5,366.2,112.1,367.1z"/>
	<path class="st2" d="M153.4,394.4c1-1.2,12.4,0.2,14-1.1c2-1.6-3-9.9-8.5-9.9c-4.8,0-7.8,3.5-9.4,7.2c-1.8,4-0.7,9.9,3.3,12.9
		c2.7,2.1,8,2.2,11,1.1c3.5-1.3,4.4-4.2,3.9-6c-0.2-0.8-3.4-1-4,0.4c-1.2,2.8-5.3,2.3-6.7,1.8C154.1,400.1,152.1,395.8,153.4,394.4z
		"/>
	<path class="st2" d="M185.5,384.8c-5.2-0.3-7.6,1.5-10.3,3.7c-4.1,3.5-6.8,11-3.8,14c3,3.2,8.4,2.2,11.9-0.2
		c3.3-2.2,3.6-4.9,3.8-5.4c0.4-0.7-1.3,4.2-0.1,7c0.8,2.1,4.3,3.1,6.1,0.1c0.3-0.5-0.1-0.7-0.3-1.3c-0.6-1.7-0.8-4.1-0.4-6.9
		c0.6-3.9,1.2-7.4-1.6-9.3C189.1,385.5,186.5,384.9,185.5,384.8z"/>
	<path class="st2" d="M196.1,390c-0.1,3.2,0.2,10.4,3.8,13c3,2.2,7.3,2.3,10.1,0.4c1.4-0.9,2.1-2.2,2.2-4.1c0-0.2,0-0.2,0-0.2
		c0,1.3,0-0.5,0,0c-0.1,1.9-0.4,3.1,0.2,4.9c0.4,1.1,1.8,1.7,3.2,1.6c1.1-0.1,2.9-1.3,2.5-1.6c-0.4-0.3-1-1.2-1.3-3.5
		c-0.3-2.5-0.4-5-0.6-7.2c-0.3-3.5,0-8.3-1-9.2c-1.2-1.1-3.1-1.1-4,0.1c-0.8,1-0.7,4.1-0.8,5.8c-0.1,2.9-0.5,5.4-2.1,7
		c-1.5,1.5-5.5,0.9-6.4-0.6c-1.7-3-0.5-10.9-1.5-12c-1.3-1.4-2.7-1.4-4,0.1C195.6,385.4,196.1,388.3,196.1,390z"/>
	<path class="st2" d="M226.7,374.9c0,0.6-0.1,5.3-0.4,8.3c-0.1,1.1-2.9,0.7-5.9,0.5c-2.3-0.1-2.7,2.7-1.7,3.2c1.2,0.6,5.1-0.1,7,1.1
		c0.7,0.4,0.2,2.8,0.2,3.8c0,2.4-0.3,4.8-0.3,7.2c0,2.1,0.2,3.9,1.5,5.6c1.1,1.4,2.8,2.3,4.6,2.6c1.7,0.3,3.5,0.6,5.2-0.6
		c1.8-1.2,2.5-3.6,2.4-5.2c-0.1-1.7-3.7-2.4-4.5-0.7c-0.3,0.5-0.5,2.2-2.4,2c-2.5-0.3-2-5.2-2-7.5c0-2.2,0.1-7.2,0.4-7.4
		c2.2-1.3,4.7-0.3,7.4-0.7c1.1-0.2,1.7-3-0.6-3.1c-2.5-0.1-5.8,0.1-5.8-1.7c0.1-3.7,0.3-4.3,0.2-7.5c0-1.5,0-10.1-0.4-11.6
		c-0.6-2-4.6-1.7-5,0c-0.3,1,0.3,8,0.3,9.8C226.7,373.5,226.7,374.7,226.7,374.9z"/>
	<path class="st2" d="M245.4,393.3c0.4,2.5,0.3,2.5-0.1,4.5s-1.1,4-1.4,6c-0.1,0.4-0.1,1.2,0.1,1.7c0.9,1.9,2.7,2.1,3.7,0.3
		c0.3-0.5,1.3-2.6,1.5-3.8c0.4-2.6,0.6-4.3,0.7-6.6c0.1-2.2,0-4.8-1-6.8c-0.6-1.1-2.1-2.7-3.6-0.5
		C244.3,389.8,245.1,391.3,245.4,393.3z"/>
	<path class="st2" d="M270.3,371.5c0.6,1.2,3.7,2,4.1-1c0.5-3.2,1.9-7.6-0.8-10.2c-3.2-3.1-9.6-2.3-12.8,0.7
		c-5.2,4.8,0.6,16.7-2.3,19.1c-0.8,0.7-1.4,0-4.5,0.7c-1.3,0.3-2.2,3.6-0.4,4c2.2,0.5,6-0.9,6.1,0c1,5.6-0.9,18.5-0.2,20.1
		c1.5,3.7,4.3,2.7,6.1,0.3c2-2.6-1-15.5,0-19.7c0.3-1.3,4.2,0.3,7.9-0.3c1.7-0.3,1-3.1-1.5-4c-2.9-1-6.4-0.1-6.8-1
		c-0.2-0.4-0.8-0.8-1.1-8.3c-0.2-4-0.1-5.2,0.8-5.9c0.9-0.7,2.6-0.8,3.5,0C270.1,367.3,269.1,369,270.3,371.5z"/>
	<path class="st2" d="M303.6,386.8c0,6.6,0.1,8.2,0.3,11.7c0.1,2.3,0.2,3.6,0.9,6c0.6,2,2.1,2.9,3-0.8c0.4-1.7,1-6.3,0.8-11.3
		c-0.1-2.2,0-6.8,0-13.8c0-8.2,0.4-15.1-0.6-17.4c-1.4-3.7-2.5-3.2-3.5,0.4C304,363.3,303.7,370.4,303.6,386.8z"/>
	<path class="st2" d="M276.4,390c-0.1,3.2,0.2,10.4,3.8,13c3,2.2,7.3,2.3,10.1,0.4c1.4-0.9,2.2-2.4,2.3-4.3c0.1-2,0-2.1,0-2.1
		c0,1.3,0,0-0.1,2.1c-0.1,1.9-0.4,3.1,0.2,4.9c1,3.2,6.5-0.1,5.6,0c-0.5,0-1-1.2-1.3-3.5c-0.3-2.5-0.4-5-0.6-7.2
		c-0.3-3.5-0.4-8-1-9.2c-1-2.3-2.6-2.6-4,0.1c-0.6,1.1-0.7,4.1-0.8,5.8c-0.1,2.9-0.5,5.4-2.1,7c-1.5,1.5-5.5,0.9-6.4-0.6
		c-1.7-3-1.3-11.4-1.5-12c-1.2-2.9-3.3-2.2-4,0.1C276.3,385.7,276.4,388.3,276.4,390z"/>
	<path class="st2" d="M119.9,366.9c-0.1,0.3,0.6-0.1,1.6,3.3c1.1,3.6,0.8,3.6,1,3.9c2.4,2,9.8-1.2,9.6-4c-0.2-1.5-1-3.3-3.9-4
		C124.9,365.3,120.5,365.7,119.9,366.9z"/>
	<path class="st2" d="M123.6,386.2c-0.4,0.4,0.5,3.1-0.2,6.7c-0.7,4.1-1.4,5.2-1,5.6c1.8,2.4,12.9,0.6,14.4-2.9c1.1-2.7,0-6.7-3-8.8
		C130.9,384.8,124.8,385,123.6,386.2z"/>
	<path class="st2" d="M413.8,374.5c0,0.6-0.1,5.3-0.4,8.3c-0.1,1.1-2.9,0.7-5.9,0.5c-2.3-0.1-2.7,2.7-1.7,3.2
		c1.2,0.6,4.9-0.7,6.6,0.6c0.9,0.7,0.6,3.3,0.6,4.3c0,2.4-0.3,4.8-0.3,7.2c0,2.1,0.2,3.9,1.5,5.6c1.1,1.4,2.8,2.3,4.6,2.6
		c1.7,0.3,3.5,0.6,5.2-0.6c1.8-1.2,2.5-3.6,2.4-5.2c-0.1-1.7-3.7-2.4-4.5-0.7c-0.3,0.5-0.5,2.2-2.4,2c-2.5-0.3-2-5.2-2-7.5
		c0-2.2,0.1-7.2,0.4-7.4c2.2-1.3,4.7-0.3,7.4-0.7c1.1-0.2,1.7-3-0.6-3.1c-2.5-0.1-5.8,0.7-5.7-1.1c0.1-3.7-0.1-5.2,0.1-8.2
		c0.1-1.7-0.1-9.7-0.5-11.1c-0.6-2-4.4-2.1-4.8-0.4c-0.3,1,0.3,8,0.3,9.8C413.8,373.1,413.8,374.3,413.8,374.5z"/>
	<path class="st2" d="M459.6,393.2c0.4,2.5,0.3,2.5-0.1,4.5s-1.1,4-1.4,6c-0.1,0.4-0.1,1.2,0.1,1.7c0.9,1.9,2.7,2.1,3.7,0.3
		c0.3-0.5,1.3-2.6,1.5-3.8c0.4-2.6,0.6-4.3,0.7-6.6c0.1-2.2,0-4.8-1-6.8c-0.6-1.1-2.1-2.7-3.6-0.5
		C458.4,389.7,459.2,391.2,459.6,393.2z"/>
	<path class="st2" d="M470.4,388.9c0,6.6,0.1,8.2,0.3,11.7c0.1,2.3,0.2,3.6,1,6c0.6,2,2.4,2.9,3.3-0.8c0.4-1.7,1.1-6.3,0.9-11.3
		c-0.1-2.2,0-6.8,0-13.8c0-8.2,0.4-15.1-0.6-17.4c-1.6-3.7-2.7-3.2-3.8,0.4C470.8,365.4,470.5,372.5,470.4,388.9z"/>
	<path class="st2" d="M391.5,396.4c1-1.2,12.3,0.2,13.9-1.1c2-1.6-2.8-9.9-8.2-9.9c-4.8,0-8.1,3.7-9.7,7.4c-1.8,4-0.5,9.7,3.4,12.7
		c2.6,2.1,7.7,2.1,10.7,1c3.5-1.3,3.9-4.3,3.2-6c-0.3-0.8-2.6-1.9-3.5,0.2c-1.2,2.5-4.8,2.4-6.7,1.6
		C391.1,401,390.3,397.9,391.5,396.4z"/>
	<path class="st2" d="M445.5,385.8c-5.1-0.3-7.5,1.5-10.2,3.7c-4,3.5-6.7,10.9-3.8,13.9c3,3.2,8.4,2.2,11.8-0.2
		c3.3-2.2,3.5-4.9,3.8-5.3c0.4-0.7-1,4.1-0.1,7c1.2,4.2,8.2,0.3,6,0.1c-0.6-0.1-0.7-0.6-0.9-1.2c-0.6-1.7-0.2-4.1,0.2-6.9
		c0.6-3.8,1.2-7.3-1.5-9.3C449,386.5,446.4,385.9,445.5,385.8z"/>
	<path class="st2" d="M354.1,365c-1.4,2.3,0.9,7.8,1.1,19.4c0.2,12.6-3,18.2-1.6,21.6c2.6,5.8,32.5-7.5,32.6-20.9
		C386.2,370.7,356.1,361.6,354.1,365z"/>
	<path class="st2" d="M494.4,390c1.5,1.1,3.1,1.4,2.7-0.9c-0.1-0.6-0.6-2.1-1.5-3c-0.9-1-2.1-1.9-3.3-2.3c-2.7-0.9-5.9-0.4-7.7,1.7
		c-1.2,1.5-1.7,3.4-1,5c0.5,1.2,1.5,2.3,2.5,3.4c2,2.3,3.2,3.9,3.7,4.7c0.5,1,0.9,1.5,0.1,2.6c-0.4,0.5-1.9,0.6-2.9-0.2
		c-0.9-0.7-1-1.6-1.6-2.7c-0.9-1.4-3.3-2.3-4.1,0.3c-0.4,1.3-0.5,5,2.6,7.4c2,1.6,3.9,1.6,6,1.3c4.1-0.6,6.7-4.8,6.1-8.3
		c-0.3-2-1.5-4.3-3.5-6.4c-1.3-1.3-2.7-1.9-3.7-2.8c-0.9-0.9-0.3-2,0.8-2.3C491.5,387.1,492.9,388.9,494.4,390z"/>
	<path class="st2" d="M361.9,375.1c-0.8,0.5,0.5,3.4,0.4,10.7c-0.1,8.9-1.5,9.9-0.6,10.6c1.3,1.1,3.6-0.1,4.5-0.5
		c3.7-1.7,9.7-4.3,9.9-10c0.2-7.1-10-10.3-10.4-10.5C364.7,375.2,363,374.4,361.9,375.1z"/>
	<path class="st2" d="M155.4,390.3c0.2,0.3,1.3,0.3,3.3,0.3c2.1,0,2-0.2,2.2-0.4c0.4-0.6-0.6-2.2-2.4-2.1
		C156.9,388.2,155,389.7,155.4,390.3z"/>
	<path class="st2" d="M181.6,391.4c-0.5,0.1-3.1,0.5-4.7,2.8c-0.8,1.2-1.3,3.2-0.4,4.1c1,1,3.5-0.4,5.5-2.1c1.6-1.4,3-2.8,2.3-3.9
		C183.7,391.5,182.5,391.2,181.6,391.4z"/>
	<path class="st2" d="M393.7,392.2c0.2,0.3,1.2,0.4,3.3,0.4c2.2,0,2.1-0.2,2.3-0.5c0.4-0.7-0.6-2.3-2.5-2.2
		C395.1,390.1,393.3,391.6,393.7,392.2z"/>
	<path class="st2" d="M441.5,392.7c-0.5,0.1-3,0.5-4.5,2.7c-0.8,1.2-1.2,3-0.4,3.8c1,1,3.3-0.4,5.2-2c1.5-1.4,2.8-2.7,2.1-3.7
		C443.4,392.8,442.4,392.5,441.5,392.7z"/>
	<path class="st2" d="M40.6,397.6c-0.7,7.7,20.2,20.8,39,18.1c8.8-1.3,18.8-6.2,18.4-9.8c-0.3-3.3-9.4-6.3-11.9-3.8
		c-3.7,3.8,5.6,19.7,7,21.7c22.9,33.8,100.1,22.1,109.8,20.6c56.9-9.3,92.2-36.4,109.6-20.5c3.6,3.2,9,9.4,7.2,13.2
		c-1.4,3-6.5,3.1-9.1,3c-3.1-0.1-6.4-1.3-6.6-4c-0.1-0.7,0.2-1.4,0.5-2.1c0.4-0.8,0.9-1.5,1.6-2.1c0.6-0.5,1.3-0.9,2.1-1.1
		c0.5-0.2,1-0.3,1.5-0.5c0.6-0.2,1.1-0.4,1.7-0.6s1.2-0.4,1.9-0.6c0.7-0.2,1.4-0.5,2.1-0.7s1.5-0.5,2.2-0.7c0.8-0.2,1.6-0.5,2.4-0.7
		c0.8-0.3,1.7-0.5,2.5-0.7c0.9-0.3,1.8-0.5,2.7-0.7c0.9-0.2,1.8-0.5,2.8-0.7s1.9-0.5,2.9-0.7s2-0.4,3-0.6s2-0.4,3-0.6
		s2.1-0.4,3.1-0.5c1-0.2,2.1-0.3,3.2-0.4c0.1,0,0.3,0,0.4,0c25.8-3.1,42.7,2.7,104.4,15.1c36,7.2,48.5,9.6,60.9,5.9
		c16-4.8,33.9-22.9,34.2-37.3c0.1-4.6-1.9-10.9-4.7-11.3c-3.5-0.5-9.1,8.2-7.2,11.5c0.8,1.3,2.8,1.8,4.7,1.9c3.1,0.2,5.2,0,6.3-0.2
		c12.2-2.4,11.3-2.2,12.5-2.5c3.6-0.9,9.9-3.1,17-7.9c2.5-1.7,4.8-3.6,6.9-5.7c2.7-2.6,5.5-5.4,6.7-9c0.3-0.9,0.1-1.8-0.9-2.1
		c-0.4-0.1-0.9-0.1-1.3-0.1c-5.6,0.6-7.8,6.9-11.5,10.4c-5.2,4.9-11.8,8.6-18.4,11.3c0,0-0.1,0-0.1,0.1c-0.6,0.3-5.4,2.7-11,3.6
		c-1.6,0.2-1.4,0.4-4.1,0.3c-1.3-0.1-3.2-0.2-4.1-1.1c-1.3-1.4,0.6-4.5,0.8-4.8c0.6-0.8,1.5-1.4,2.9-1.3c2,0.1,2.7,2.4,3.1,4.6
		c0.8,4.7-1.4,8.7-2.2,9.9c-3.9,6.1-8.2,12-13.6,16.7c-5.9,5.1-13.1,7.5-20.7,8.8c-7.6,1.3-13.5,1.2-15.3,1.1c-3.3-0.1-8-1-17.3-2.6
		c-3.6-0.6-8.4-1.5-15.5-2.9c-8.7-1.7-9.3-2-17.1-3.5c-5.1-1-4.9-0.9-15.4-2.9c-12-2.2-13-2.5-18.9-3.6c-1.9-0.3-11.1-2-19.1-3.1
		c-19.9-2.8-29.8-4.2-40.5-2.7c-12.4,1.8-9.7,1.6-27,6.5c-9.1,2.5-16.7,3.6-18.6,8.3c-1.1,2.8,0.2,5.9,1.5,7.6
		c4.7,6,17.8,4.7,21.1-1.6c1.8-3.4,0.3-7.4-0.4-9.3c-2.7-7.5-9.8-10.7-11.3-11.4c-7.7-3.6-15.4-2-23.8,0.1
		c-19.3,4.7-33.9,9.9-36.2,10.7c-21.5,7.6-39.2,10.4-47.9,11.7c-20.4,3.1-35.1,2.7-49.3,2.2c-14.5-0.4-23.5-1.6-33.1-5
		c-12.5-4.4-18.4-9.6-20.4-11.4c-7.9-7.4-14.6-19.1-12-22c1.5-1.6,6-0.7,6.3,0.8c0.5,2-6.7,6.4-13.7,7.6c-8.8,1.5-16.2-2.2-18.6-3.5
		c-11.4-5.9-16.1-16.5-19.5-14.9C40.8,395.5,40.6,397.5,40.6,397.6z"/>
	<polygon class="st2" points="249.1,386.3 246.5,384.9 243.9,386.4 244.3,383.5 242.2,381.5 245.1,381 246.3,378.4 247.7,381 
		250.6,381.3 248.5,383.4 	"/>
	<polygon class="st2" points="463.6,386 461,384.7 458.4,386.1 458.8,383.2 456.6,381.1 459.6,380.6 460.8,377.9 462.2,380.6 
		465.2,381 463.1,383.1 	"/>
</g>
</svg>
